G75*
%MOIN*%
%OFA0B0*%
%FSLAX25Y25*%
%IPPOS*%
%LPD*%
%AMOC8*
5,1,8,0,0,1.08239X$1,22.5*
%
%ADD10C,0.01181*%
%ADD11R,0.03740X0.02756*%
%ADD12R,0.04626X0.02756*%
%ADD13C,0.00394*%
%ADD14C,0.00400*%
%ADD15C,0.00800*%
%ADD16C,0.00600*%
%ADD17C,0.00500*%
D10*
X0083459Y0081493D02*
X0093517Y0087300D01*
X0093737Y0087594D01*
X0093950Y0087894D01*
X0094157Y0088198D01*
X0094355Y0088508D01*
X0094546Y0088822D01*
X0094729Y0089140D01*
X0094905Y0089463D01*
X0095072Y0089791D01*
X0095232Y0090122D01*
X0095384Y0090457D01*
X0095527Y0090795D01*
X0095662Y0091137D01*
X0095789Y0091482D01*
X0095907Y0091831D01*
X0096016Y0092181D01*
X0096118Y0092535D01*
X0096210Y0092891D01*
X0096294Y0093249D01*
X0096369Y0093609D01*
X0096436Y0093970D01*
X0096493Y0094333D01*
X0096542Y0094698D01*
X0096582Y0095063D01*
X0096613Y0095429D01*
X0096635Y0095796D01*
X0096648Y0096164D01*
X0096652Y0096531D01*
X0096647Y0096899D01*
X0096634Y0097266D01*
X0096611Y0097633D01*
X0096579Y0098000D01*
X0096539Y0098365D01*
X0096490Y0098729D01*
X0096431Y0099092D01*
X0096364Y0099454D01*
X0096289Y0099814D01*
X0096204Y0100171D01*
X0096111Y0100527D01*
X0096009Y0100880D01*
X0095899Y0101231D01*
X0095780Y0101579D01*
X0095653Y0101924D01*
X0095517Y0102266D01*
X0095374Y0102604D01*
X0095222Y0102939D01*
X0095061Y0103270D01*
X0094893Y0103596D01*
X0094717Y0103919D01*
X0094533Y0104238D01*
X0094342Y0104551D01*
X0094143Y0104861D01*
X0093936Y0105165D01*
X0093722Y0105464D01*
X0093501Y0105757D01*
X0093273Y0106046D01*
X0093038Y0106328D01*
X0092796Y0106605D01*
X0092548Y0106876D01*
X0092293Y0107141D01*
X0092031Y0107399D01*
X0091764Y0107651D01*
X0091490Y0107897D01*
X0091210Y0108136D01*
X0090925Y0108367D01*
X0090634Y0108592D01*
X0090338Y0108810D01*
X0090036Y0109021D01*
X0089730Y0109224D01*
X0089419Y0109419D01*
X0089103Y0109607D01*
X0088782Y0109787D01*
X0088458Y0109960D01*
X0088129Y0110124D01*
X0087796Y0110280D01*
X0087460Y0110429D01*
X0087120Y0110569D01*
X0086776Y0110700D01*
X0086430Y0110824D01*
X0086081Y0110939D01*
X0085729Y0111045D01*
X0085374Y0111143D01*
X0085018Y0111232D01*
X0084659Y0111312D01*
X0084298Y0111384D01*
X0083936Y0111447D01*
X0083573Y0111501D01*
X0083208Y0111546D01*
X0082842Y0111582D01*
X0082475Y0111610D01*
X0082108Y0111628D01*
X0081741Y0111638D01*
X0081373Y0111638D01*
X0081005Y0111630D01*
X0080638Y0111613D01*
X0080272Y0111586D01*
X0079906Y0111551D01*
X0079541Y0111507D01*
X0069483Y0105700D01*
X0069482Y0105701D02*
X0069262Y0105407D01*
X0069048Y0105107D01*
X0068842Y0104803D01*
X0068644Y0104493D01*
X0068453Y0104179D01*
X0068269Y0103861D01*
X0068094Y0103537D01*
X0067926Y0103210D01*
X0067767Y0102879D01*
X0067615Y0102544D01*
X0067472Y0102205D01*
X0067337Y0101863D01*
X0067210Y0101518D01*
X0067092Y0101170D01*
X0066982Y0100819D01*
X0066881Y0100466D01*
X0066789Y0100110D01*
X0066705Y0099752D01*
X0066630Y0099392D01*
X0066563Y0099031D01*
X0066506Y0098668D01*
X0066457Y0098303D01*
X0066417Y0097938D01*
X0066386Y0097571D01*
X0066364Y0097204D01*
X0066351Y0096837D01*
X0066347Y0096469D01*
X0066352Y0096102D01*
X0066365Y0095734D01*
X0066388Y0095367D01*
X0066420Y0095001D01*
X0066460Y0094636D01*
X0066509Y0094271D01*
X0066568Y0093908D01*
X0066635Y0093547D01*
X0066710Y0093187D01*
X0066795Y0092829D01*
X0066888Y0092474D01*
X0066990Y0092120D01*
X0067100Y0091770D01*
X0067219Y0091422D01*
X0067346Y0091077D01*
X0067482Y0090735D01*
X0067626Y0090397D01*
X0067778Y0090062D01*
X0067938Y0089731D01*
X0068106Y0089404D01*
X0068282Y0089081D01*
X0068466Y0088763D01*
X0068657Y0088449D01*
X0068856Y0088140D01*
X0069063Y0087836D01*
X0069277Y0087537D01*
X0069498Y0087243D01*
X0069726Y0086955D01*
X0069961Y0086672D01*
X0070203Y0086395D01*
X0070452Y0086124D01*
X0070707Y0085860D01*
X0070968Y0085601D01*
X0071236Y0085349D01*
X0071509Y0085104D01*
X0071789Y0084865D01*
X0072074Y0084633D01*
X0072365Y0084408D01*
X0072661Y0084190D01*
X0072963Y0083980D01*
X0073269Y0083777D01*
X0073581Y0083581D01*
X0073896Y0083393D01*
X0074217Y0083213D01*
X0074542Y0083041D01*
X0074870Y0082876D01*
X0075203Y0082720D01*
X0075540Y0082572D01*
X0075880Y0082432D01*
X0076223Y0082300D01*
X0076569Y0082177D01*
X0076918Y0082062D01*
X0077270Y0081955D01*
X0077625Y0081858D01*
X0077981Y0081768D01*
X0078340Y0081688D01*
X0078701Y0081616D01*
X0079063Y0081553D01*
X0079427Y0081499D01*
X0079792Y0081454D01*
X0080157Y0081418D01*
X0080524Y0081390D01*
X0080891Y0081372D01*
X0081259Y0081362D01*
X0081626Y0081362D01*
X0081994Y0081370D01*
X0082361Y0081387D01*
X0082728Y0081414D01*
X0083094Y0081449D01*
X0083459Y0081493D01*
X0159483Y0092300D02*
X0169541Y0086493D01*
X0169906Y0086449D01*
X0170272Y0086414D01*
X0170639Y0086387D01*
X0171006Y0086370D01*
X0171374Y0086362D01*
X0171741Y0086362D01*
X0172109Y0086372D01*
X0172476Y0086390D01*
X0172843Y0086418D01*
X0173208Y0086454D01*
X0173573Y0086499D01*
X0173937Y0086553D01*
X0174299Y0086616D01*
X0174660Y0086688D01*
X0175019Y0086768D01*
X0175375Y0086858D01*
X0175730Y0086955D01*
X0176082Y0087062D01*
X0176431Y0087177D01*
X0176777Y0087300D01*
X0177120Y0087432D01*
X0177460Y0087572D01*
X0177797Y0087720D01*
X0178130Y0087876D01*
X0178458Y0088041D01*
X0178783Y0088213D01*
X0179104Y0088393D01*
X0179419Y0088581D01*
X0179731Y0088777D01*
X0180037Y0088980D01*
X0180339Y0089190D01*
X0180635Y0089408D01*
X0180926Y0089633D01*
X0181211Y0089865D01*
X0181491Y0090104D01*
X0181764Y0090349D01*
X0182032Y0090601D01*
X0182293Y0090860D01*
X0182548Y0091124D01*
X0182797Y0091395D01*
X0183039Y0091672D01*
X0183274Y0091955D01*
X0183502Y0092243D01*
X0183723Y0092537D01*
X0183937Y0092836D01*
X0184144Y0093140D01*
X0184343Y0093449D01*
X0184534Y0093763D01*
X0184718Y0094081D01*
X0184894Y0094404D01*
X0185062Y0094731D01*
X0185222Y0095062D01*
X0185374Y0095397D01*
X0185518Y0095735D01*
X0185654Y0096077D01*
X0185781Y0096422D01*
X0185900Y0096770D01*
X0186010Y0097120D01*
X0186112Y0097474D01*
X0186205Y0097829D01*
X0186290Y0098187D01*
X0186365Y0098547D01*
X0186432Y0098908D01*
X0186491Y0099271D01*
X0186540Y0099636D01*
X0186580Y0100001D01*
X0186612Y0100367D01*
X0186635Y0100734D01*
X0186648Y0101102D01*
X0186653Y0101469D01*
X0186649Y0101837D01*
X0186636Y0102204D01*
X0186614Y0102571D01*
X0186583Y0102938D01*
X0186543Y0103303D01*
X0186494Y0103668D01*
X0186437Y0104031D01*
X0186370Y0104392D01*
X0186295Y0104752D01*
X0186211Y0105110D01*
X0186119Y0105466D01*
X0186018Y0105819D01*
X0185908Y0106170D01*
X0185790Y0106518D01*
X0185663Y0106863D01*
X0185528Y0107205D01*
X0185385Y0107544D01*
X0185233Y0107879D01*
X0185074Y0108210D01*
X0184906Y0108537D01*
X0184731Y0108861D01*
X0184547Y0109179D01*
X0184356Y0109493D01*
X0184158Y0109803D01*
X0183952Y0110107D01*
X0183738Y0110407D01*
X0183518Y0110701D01*
X0183517Y0110700D02*
X0173459Y0116507D01*
X0173094Y0116551D01*
X0172728Y0116586D01*
X0172362Y0116613D01*
X0171995Y0116630D01*
X0171627Y0116638D01*
X0171259Y0116638D01*
X0170892Y0116628D01*
X0170525Y0116610D01*
X0170158Y0116582D01*
X0169792Y0116546D01*
X0169427Y0116501D01*
X0169064Y0116447D01*
X0168702Y0116384D01*
X0168341Y0116312D01*
X0167982Y0116232D01*
X0167626Y0116143D01*
X0167271Y0116045D01*
X0166919Y0115939D01*
X0166570Y0115824D01*
X0166224Y0115700D01*
X0165880Y0115569D01*
X0165540Y0115429D01*
X0165204Y0115280D01*
X0164871Y0115124D01*
X0164542Y0114960D01*
X0164218Y0114787D01*
X0163897Y0114607D01*
X0163581Y0114419D01*
X0163270Y0114224D01*
X0162964Y0114021D01*
X0162662Y0113810D01*
X0162366Y0113592D01*
X0162075Y0113367D01*
X0161790Y0113136D01*
X0161510Y0112897D01*
X0161236Y0112651D01*
X0160969Y0112399D01*
X0160707Y0112141D01*
X0160452Y0111876D01*
X0160204Y0111605D01*
X0159962Y0111328D01*
X0159727Y0111046D01*
X0159499Y0110757D01*
X0159278Y0110464D01*
X0159064Y0110165D01*
X0158857Y0109861D01*
X0158658Y0109551D01*
X0158467Y0109238D01*
X0158283Y0108919D01*
X0158107Y0108596D01*
X0157939Y0108270D01*
X0157778Y0107939D01*
X0157626Y0107604D01*
X0157483Y0107266D01*
X0157347Y0106924D01*
X0157220Y0106579D01*
X0157101Y0106231D01*
X0156991Y0105880D01*
X0156889Y0105527D01*
X0156796Y0105171D01*
X0156711Y0104814D01*
X0156636Y0104454D01*
X0156569Y0104092D01*
X0156510Y0103729D01*
X0156461Y0103365D01*
X0156421Y0103000D01*
X0156389Y0102633D01*
X0156366Y0102266D01*
X0156353Y0101899D01*
X0156348Y0101531D01*
X0156352Y0101164D01*
X0156365Y0100796D01*
X0156387Y0100429D01*
X0156418Y0100063D01*
X0156458Y0099698D01*
X0156507Y0099333D01*
X0156564Y0098970D01*
X0156631Y0098609D01*
X0156706Y0098249D01*
X0156790Y0097891D01*
X0156882Y0097535D01*
X0156984Y0097181D01*
X0157093Y0096831D01*
X0157211Y0096482D01*
X0157338Y0096137D01*
X0157473Y0095795D01*
X0157616Y0095457D01*
X0157768Y0095122D01*
X0157928Y0094791D01*
X0158095Y0094463D01*
X0158271Y0094140D01*
X0158454Y0093822D01*
X0158645Y0093508D01*
X0158843Y0093198D01*
X0159050Y0092894D01*
X0159263Y0092594D01*
X0159483Y0092300D01*
X0140476Y0170693D02*
X0140476Y0182307D01*
X0140477Y0182308D02*
X0140332Y0182646D01*
X0140180Y0182980D01*
X0140019Y0183311D01*
X0139850Y0183637D01*
X0139674Y0183960D01*
X0139489Y0184278D01*
X0139297Y0184592D01*
X0139098Y0184900D01*
X0138891Y0185204D01*
X0138676Y0185503D01*
X0138455Y0185796D01*
X0138226Y0186084D01*
X0137990Y0186366D01*
X0137748Y0186643D01*
X0137499Y0186913D01*
X0137244Y0187178D01*
X0136982Y0187436D01*
X0136714Y0187687D01*
X0136439Y0187932D01*
X0136160Y0188171D01*
X0135874Y0188402D01*
X0135583Y0188626D01*
X0135286Y0188844D01*
X0134984Y0189054D01*
X0134677Y0189256D01*
X0134366Y0189451D01*
X0134049Y0189639D01*
X0133729Y0189818D01*
X0133404Y0189990D01*
X0133075Y0190154D01*
X0132742Y0190310D01*
X0132405Y0190457D01*
X0132065Y0190597D01*
X0131721Y0190728D01*
X0131375Y0190851D01*
X0131025Y0190965D01*
X0130673Y0191071D01*
X0130319Y0191168D01*
X0129962Y0191256D01*
X0129603Y0191336D01*
X0129242Y0191407D01*
X0128880Y0191470D01*
X0128516Y0191523D01*
X0128151Y0191568D01*
X0127785Y0191603D01*
X0127419Y0191630D01*
X0127051Y0191648D01*
X0126684Y0191657D01*
X0126316Y0191657D01*
X0125949Y0191648D01*
X0125581Y0191630D01*
X0125215Y0191603D01*
X0124849Y0191568D01*
X0124484Y0191523D01*
X0124120Y0191470D01*
X0123758Y0191407D01*
X0123397Y0191336D01*
X0123038Y0191256D01*
X0122681Y0191168D01*
X0122327Y0191071D01*
X0121975Y0190965D01*
X0121625Y0190851D01*
X0121279Y0190728D01*
X0120935Y0190597D01*
X0120595Y0190457D01*
X0120258Y0190310D01*
X0119925Y0190154D01*
X0119596Y0189990D01*
X0119271Y0189818D01*
X0118951Y0189639D01*
X0118634Y0189451D01*
X0118323Y0189256D01*
X0118016Y0189054D01*
X0117714Y0188844D01*
X0117417Y0188626D01*
X0117126Y0188402D01*
X0116840Y0188171D01*
X0116561Y0187932D01*
X0116286Y0187687D01*
X0116018Y0187436D01*
X0115756Y0187178D01*
X0115501Y0186913D01*
X0115252Y0186643D01*
X0115010Y0186366D01*
X0114774Y0186084D01*
X0114545Y0185796D01*
X0114324Y0185503D01*
X0114109Y0185204D01*
X0113902Y0184900D01*
X0113703Y0184592D01*
X0113511Y0184278D01*
X0113326Y0183960D01*
X0113150Y0183637D01*
X0112981Y0183311D01*
X0112820Y0182980D01*
X0112668Y0182646D01*
X0112523Y0182308D01*
X0112524Y0182307D02*
X0112524Y0170693D01*
X0112668Y0170355D01*
X0112821Y0170021D01*
X0112982Y0169690D01*
X0113150Y0169364D01*
X0113327Y0169041D01*
X0113511Y0168723D01*
X0113703Y0168410D01*
X0113903Y0168101D01*
X0114110Y0167797D01*
X0114324Y0167498D01*
X0114546Y0167205D01*
X0114774Y0166917D01*
X0115010Y0166635D01*
X0115252Y0166358D01*
X0115501Y0166088D01*
X0115757Y0165823D01*
X0116019Y0165565D01*
X0116287Y0165314D01*
X0116561Y0165069D01*
X0116841Y0164831D01*
X0117126Y0164599D01*
X0117418Y0164375D01*
X0117714Y0164158D01*
X0118016Y0163948D01*
X0118323Y0163745D01*
X0118634Y0163550D01*
X0118951Y0163362D01*
X0119271Y0163183D01*
X0119597Y0163011D01*
X0119926Y0162847D01*
X0120259Y0162691D01*
X0120595Y0162544D01*
X0120935Y0162404D01*
X0121279Y0162273D01*
X0121625Y0162150D01*
X0121975Y0162036D01*
X0122327Y0161930D01*
X0122682Y0161833D01*
X0123038Y0161745D01*
X0123397Y0161665D01*
X0123758Y0161594D01*
X0124120Y0161531D01*
X0124484Y0161478D01*
X0124849Y0161433D01*
X0125215Y0161398D01*
X0125581Y0161371D01*
X0125949Y0161353D01*
X0126316Y0161344D01*
X0126684Y0161344D01*
X0127051Y0161353D01*
X0127419Y0161371D01*
X0127785Y0161398D01*
X0128151Y0161433D01*
X0128516Y0161478D01*
X0128880Y0161531D01*
X0129242Y0161594D01*
X0129603Y0161665D01*
X0129962Y0161745D01*
X0130318Y0161833D01*
X0130673Y0161930D01*
X0131025Y0162036D01*
X0131375Y0162150D01*
X0131721Y0162273D01*
X0132065Y0162404D01*
X0132405Y0162544D01*
X0132741Y0162691D01*
X0133074Y0162847D01*
X0133403Y0163011D01*
X0133729Y0163183D01*
X0134049Y0163362D01*
X0134366Y0163550D01*
X0134677Y0163745D01*
X0134984Y0163948D01*
X0135286Y0164158D01*
X0135582Y0164375D01*
X0135874Y0164599D01*
X0136159Y0164831D01*
X0136439Y0165069D01*
X0136713Y0165314D01*
X0136981Y0165565D01*
X0137243Y0165823D01*
X0137499Y0166088D01*
X0137748Y0166358D01*
X0137990Y0166635D01*
X0138226Y0166917D01*
X0138454Y0167205D01*
X0138676Y0167498D01*
X0138890Y0167797D01*
X0139097Y0168101D01*
X0139297Y0168410D01*
X0139489Y0168723D01*
X0139673Y0169041D01*
X0139850Y0169364D01*
X0140018Y0169690D01*
X0140179Y0170021D01*
X0140332Y0170355D01*
X0140476Y0170693D01*
D11*
X0142346Y0172169D03*
G36*
X0077069Y0110081D02*
X0075199Y0113319D01*
X0077585Y0114697D01*
X0079455Y0111459D01*
X0077069Y0110081D01*
G37*
G36*
X0161954Y0090872D02*
X0160084Y0087634D01*
X0157698Y0089012D01*
X0159568Y0092250D01*
X0161954Y0090872D01*
G37*
D12*
G36*
X0169504Y0086627D02*
X0167191Y0082621D01*
X0164806Y0083999D01*
X0167119Y0088005D01*
X0169504Y0086627D01*
G37*
G36*
X0178145Y0118916D02*
X0175832Y0114910D01*
X0173447Y0116288D01*
X0175760Y0120294D01*
X0178145Y0118916D01*
G37*
G36*
X0093261Y0082037D02*
X0090948Y0086043D01*
X0093333Y0087421D01*
X0095646Y0083415D01*
X0093261Y0082037D01*
G37*
G36*
X0069618Y0105664D02*
X0067305Y0109670D01*
X0069690Y0111048D01*
X0072003Y0107042D01*
X0069618Y0105664D01*
G37*
X0110407Y0172169D03*
X0142691Y0180831D03*
D13*
X0112130Y0181017D02*
X0109934Y0181017D01*
X0109932Y0181032D02*
X0109832Y0181264D01*
X0109674Y0181461D01*
X0109469Y0181608D01*
X0109232Y0181696D01*
X0108980Y0181717D01*
X0108980Y0182012D01*
X0112130Y0182012D01*
X0112130Y0179650D01*
X0108980Y0179650D01*
X0108980Y0179846D01*
X0109232Y0179867D01*
X0109469Y0179955D01*
X0109674Y0180102D01*
X0109832Y0180299D01*
X0109932Y0180531D01*
X0109966Y0180781D01*
X0109932Y0181032D01*
X0109945Y0180625D02*
X0112130Y0180625D01*
X0112130Y0180233D02*
X0109779Y0180233D01*
X0108980Y0179841D02*
X0112130Y0179841D01*
X0112130Y0181410D02*
X0109715Y0181410D01*
X0108980Y0181802D02*
X0112130Y0181802D01*
X0182987Y0115098D02*
X0183158Y0114999D01*
X0183050Y0114771D01*
X0183007Y0114522D01*
X0183033Y0114271D01*
X0183124Y0114035D01*
X0183275Y0113833D01*
X0183475Y0113678D01*
X0183709Y0113583D01*
X0183960Y0113553D01*
X0184209Y0113591D01*
X0184439Y0113695D01*
X0184634Y0113857D01*
X0184777Y0114064D01*
X0185033Y0113917D01*
X0183458Y0111189D01*
X0181413Y0112370D01*
X0182987Y0115098D01*
X0183044Y0114734D02*
X0182777Y0114734D01*
X0182551Y0114341D02*
X0183026Y0114341D01*
X0183188Y0113949D02*
X0182324Y0113949D01*
X0182098Y0113557D02*
X0183925Y0113557D01*
X0183986Y0113557D02*
X0184826Y0113557D01*
X0184698Y0113949D02*
X0184977Y0113949D01*
X0184599Y0113165D02*
X0181872Y0113165D01*
X0181645Y0112773D02*
X0184373Y0112773D01*
X0184146Y0112380D02*
X0181419Y0112380D01*
X0182074Y0111988D02*
X0183920Y0111988D01*
X0183693Y0111596D02*
X0182753Y0111596D01*
X0183433Y0111204D02*
X0183467Y0111204D01*
X0087532Y0079753D02*
X0087362Y0079654D01*
X0087218Y0079862D01*
X0087024Y0080023D01*
X0086793Y0080127D01*
X0086544Y0080166D01*
X0086293Y0080136D01*
X0086059Y0080040D01*
X0085859Y0079886D01*
X0085708Y0079683D01*
X0085617Y0079448D01*
X0085592Y0079197D01*
X0085634Y0078948D01*
X0085742Y0078719D01*
X0085486Y0078572D01*
X0083912Y0081299D01*
X0085957Y0082480D01*
X0087532Y0079753D01*
X0087489Y0079827D02*
X0087242Y0079827D01*
X0087263Y0080219D02*
X0084535Y0080219D01*
X0084309Y0080611D02*
X0087037Y0080611D01*
X0086810Y0081003D02*
X0084082Y0081003D01*
X0084079Y0081396D02*
X0086584Y0081396D01*
X0086357Y0081788D02*
X0084758Y0081788D01*
X0085437Y0082180D02*
X0086131Y0082180D01*
X0085816Y0079827D02*
X0084762Y0079827D01*
X0084988Y0079435D02*
X0085616Y0079435D01*
X0085618Y0079042D02*
X0085215Y0079042D01*
X0085441Y0078650D02*
X0085622Y0078650D01*
D14*
X0089272Y0073043D02*
X0090806Y0070385D01*
X0135196Y0096002D02*
X0137498Y0093700D01*
X0137498Y0096769D01*
X0138265Y0098304D02*
X0138265Y0100606D01*
X0137498Y0101373D01*
X0135963Y0101373D01*
X0135196Y0100606D01*
X0135196Y0098304D01*
X0139800Y0098304D01*
X0138265Y0099839D02*
X0139800Y0101373D01*
X0139800Y0102908D02*
X0139033Y0102908D01*
X0135963Y0105977D01*
X0135196Y0105977D01*
X0135196Y0102908D01*
X0135196Y0096002D02*
X0139800Y0096002D01*
X0148284Y0106165D02*
X0152271Y0103863D01*
X0153806Y0106521D01*
X0154573Y0107850D02*
X0156108Y0110508D01*
X0156875Y0111837D02*
X0158026Y0113831D01*
X0157745Y0114879D01*
X0155087Y0116414D01*
X0154039Y0116133D01*
X0152888Y0114139D01*
X0156875Y0111837D01*
X0153347Y0110330D02*
X0152580Y0109001D01*
X0154573Y0107850D02*
X0150586Y0110152D01*
X0152121Y0112810D01*
X0159177Y0115824D02*
X0158054Y0120017D01*
X0157389Y0120401D01*
X0156341Y0120120D01*
X0155574Y0118791D01*
X0155855Y0117743D01*
X0159177Y0115824D02*
X0160712Y0118482D01*
X0152167Y0123879D02*
X0150071Y0124440D01*
X0150735Y0124824D02*
X0148742Y0123673D01*
X0149509Y0122344D02*
X0147207Y0126331D01*
X0149201Y0127482D01*
X0150249Y0127201D01*
X0151016Y0125872D01*
X0150735Y0124824D01*
X0153113Y0125310D02*
X0154161Y0125030D01*
X0155490Y0125797D01*
X0155771Y0126845D01*
X0155387Y0127510D01*
X0154339Y0127790D01*
X0153674Y0127407D01*
X0154339Y0127790D02*
X0154620Y0128839D01*
X0154236Y0129503D01*
X0153188Y0129784D01*
X0151859Y0129017D01*
X0151578Y0127968D01*
X0139509Y0141664D02*
X0137207Y0145652D01*
X0139201Y0146803D01*
X0140249Y0146522D01*
X0141016Y0145193D01*
X0140735Y0144144D01*
X0138742Y0142993D01*
X0140071Y0143761D02*
X0142167Y0143199D01*
X0143496Y0143966D02*
X0143113Y0144631D01*
X0144236Y0148824D01*
X0143852Y0149488D01*
X0141194Y0147953D01*
X0137029Y0142891D02*
X0134371Y0141356D01*
X0135214Y0144501D01*
X0137516Y0140513D01*
X0131398Y0154200D02*
X0129863Y0154200D01*
X0129096Y0154967D01*
X0127561Y0154967D02*
X0127561Y0158037D01*
X0126794Y0158804D01*
X0124492Y0158804D01*
X0124492Y0154200D01*
X0126794Y0154200D01*
X0127561Y0154967D01*
X0129096Y0158037D02*
X0129863Y0158804D01*
X0131398Y0158804D01*
X0132165Y0158037D01*
X0132165Y0157269D01*
X0131398Y0156502D01*
X0132165Y0155735D01*
X0132165Y0154967D01*
X0131398Y0154200D01*
X0131398Y0156502D02*
X0130631Y0156502D01*
X0122957Y0158804D02*
X0119888Y0158804D01*
X0119888Y0154200D01*
X0122957Y0154200D01*
X0121423Y0156502D02*
X0119888Y0156502D01*
X0118354Y0154200D02*
X0115284Y0154200D01*
X0115284Y0158804D01*
X0109165Y0150055D02*
X0111158Y0148905D01*
X0111439Y0147856D01*
X0110672Y0146527D01*
X0109624Y0146246D01*
X0107630Y0147397D01*
X0106863Y0146068D02*
X0109165Y0150055D01*
X0112385Y0146424D02*
X0114481Y0146986D01*
X0112179Y0142999D01*
X0110850Y0143766D02*
X0113508Y0142232D01*
X0109521Y0144534D02*
X0108959Y0146630D01*
X0098158Y0131584D02*
X0095014Y0130741D01*
X0097672Y0129207D01*
X0098617Y0127775D02*
X0100611Y0126624D01*
X0101659Y0126905D01*
X0102426Y0128234D01*
X0102146Y0129282D01*
X0100152Y0130433D01*
X0097850Y0126446D01*
X0099946Y0127008D02*
X0100508Y0124911D01*
X0101837Y0124144D02*
X0102221Y0124808D01*
X0106414Y0125932D01*
X0106797Y0126596D01*
X0104139Y0128131D01*
X0098158Y0131584D02*
X0095856Y0127597D01*
X0074278Y0122082D02*
X0071620Y0120547D01*
X0072182Y0122643D02*
X0073716Y0119985D01*
X0093929Y0111837D02*
X0095463Y0109179D01*
X0096231Y0107850D02*
X0097765Y0105192D01*
X0098533Y0103863D02*
X0099684Y0101869D01*
X0100732Y0101588D01*
X0103390Y0103123D01*
X0103671Y0104171D01*
X0102520Y0106165D01*
X0098533Y0103863D01*
X0098991Y0107672D02*
X0098224Y0109001D01*
X0096231Y0107850D02*
X0100218Y0110152D01*
X0101752Y0107494D01*
X0103493Y0101410D02*
X0105589Y0100849D01*
X0101602Y0098547D01*
X0100835Y0099876D02*
X0102369Y0097218D01*
X0113196Y0096700D02*
X0113196Y0099002D01*
X0113963Y0099769D01*
X0115498Y0099769D01*
X0116265Y0099002D01*
X0116265Y0096700D01*
X0116265Y0098235D02*
X0117800Y0099769D01*
X0117800Y0101304D02*
X0114731Y0104373D01*
X0113963Y0104373D01*
X0113196Y0103606D01*
X0113196Y0102071D01*
X0113963Y0101304D01*
X0117800Y0101304D02*
X0117800Y0104373D01*
X0117800Y0096700D02*
X0113196Y0096700D01*
X0097916Y0114139D02*
X0093929Y0111837D01*
X0152956Y0082455D02*
X0155615Y0080920D01*
X0153518Y0080358D02*
X0155053Y0083017D01*
X0187928Y0119959D02*
X0189463Y0122617D01*
X0151131Y0169967D02*
X0151131Y0173037D01*
X0149596Y0171502D02*
X0152665Y0171502D01*
X0101165Y0181502D02*
X0098096Y0181502D01*
D15*
X0073405Y0167492D02*
X0071871Y0168377D01*
X0062816Y0152693D01*
X0064350Y0151808D01*
X0062628Y0148824D02*
X0069447Y0144887D01*
X0071169Y0147871D02*
X0072704Y0146985D01*
X0081759Y0162669D01*
X0080225Y0163555D01*
X0056255Y0177111D02*
X0058027Y0180180D01*
X0050881Y0187488D02*
X0043721Y0191622D01*
X0028760Y0165709D02*
X0035921Y0161575D01*
X0045822Y0159041D02*
X0047594Y0162109D01*
D16*
X0029353Y0172928D02*
X0027099Y0174229D01*
X0027417Y0173044D01*
X0026232Y0172727D01*
X0028485Y0171426D01*
X0029959Y0173977D02*
X0030392Y0174729D01*
X0030175Y0174353D02*
X0027922Y0175654D01*
X0027705Y0175279D02*
X0028139Y0176030D01*
X0028687Y0176980D02*
X0031808Y0177181D01*
X0029555Y0178482D01*
X0030160Y0179532D02*
X0030594Y0180283D01*
X0030377Y0179907D02*
X0032631Y0178606D01*
X0032414Y0178230D02*
X0032848Y0178982D01*
X0033772Y0179715D02*
X0034639Y0181217D01*
X0034494Y0182700D02*
X0035086Y0182859D01*
X0035520Y0183610D01*
X0035361Y0184203D01*
X0033483Y0185287D01*
X0034465Y0186119D02*
X0034840Y0185902D01*
X0035433Y0186061D01*
X0035866Y0186812D01*
X0036459Y0186971D01*
X0036834Y0186754D01*
X0036993Y0186162D01*
X0036560Y0185411D01*
X0035967Y0185252D01*
X0034465Y0186119D02*
X0034306Y0186712D01*
X0034740Y0187463D01*
X0035332Y0187622D01*
X0035562Y0188888D02*
X0036213Y0190015D01*
X0036805Y0190173D01*
X0037181Y0189957D01*
X0037340Y0189364D01*
X0036689Y0188237D01*
X0037816Y0187587D02*
X0038466Y0188714D01*
X0038308Y0189306D01*
X0037932Y0189523D01*
X0037340Y0189364D01*
X0037816Y0187587D02*
X0035562Y0188888D01*
X0032616Y0183784D02*
X0034494Y0182700D01*
X0030941Y0175679D02*
X0028687Y0176980D01*
D17*
X0062080Y0157305D02*
X0062428Y0156006D01*
X0063062Y0157104D01*
X0063727Y0156355D02*
X0062080Y0157305D01*
X0062984Y0158237D02*
X0062868Y0158670D01*
X0063185Y0159219D01*
X0063618Y0159335D01*
X0064082Y0157603D01*
X0064515Y0157719D01*
X0064832Y0158268D01*
X0064716Y0158701D01*
X0063618Y0159335D01*
X0063815Y0160309D02*
X0064913Y0159676D01*
X0065779Y0159908D01*
X0065547Y0160774D01*
X0064449Y0161407D01*
X0066567Y0161272D02*
X0065554Y0163321D01*
X0066025Y0164137D02*
X0066848Y0163662D01*
X0066891Y0164369D01*
X0067049Y0164644D01*
X0067482Y0164760D01*
X0068031Y0164443D01*
X0068147Y0164010D01*
X0067830Y0163461D01*
X0067397Y0163345D01*
X0066025Y0164137D02*
X0066659Y0165235D01*
X0067404Y0165892D02*
X0067288Y0166325D01*
X0067605Y0166874D01*
X0068038Y0166990D01*
X0068502Y0165259D01*
X0068935Y0165375D01*
X0069252Y0165924D01*
X0069136Y0166356D01*
X0068038Y0166990D01*
X0068509Y0167806D02*
X0068393Y0168239D01*
X0068710Y0168788D01*
X0069143Y0168904D01*
X0069607Y0167172D01*
X0070040Y0167288D01*
X0070357Y0167837D01*
X0070241Y0168270D01*
X0069143Y0168904D01*
X0069888Y0169562D02*
X0070986Y0168928D01*
X0071303Y0169477D02*
X0070480Y0169952D01*
X0070364Y0170385D01*
X0070797Y0170501D01*
X0071620Y0170026D01*
X0071542Y0171158D02*
X0072408Y0171390D01*
X0072176Y0172256D01*
X0071078Y0172890D01*
X0070444Y0171792D02*
X0071542Y0171158D01*
X0070480Y0169952D02*
X0070047Y0169836D01*
X0069888Y0169562D01*
X0068509Y0167806D02*
X0069607Y0167172D01*
X0068502Y0165259D02*
X0067404Y0165892D01*
X0071962Y0159010D02*
X0073609Y0158059D01*
X0073292Y0157510D02*
X0073926Y0158608D01*
X0072194Y0158144D02*
X0071962Y0159010D01*
X0071448Y0157487D02*
X0071016Y0157371D01*
X0070540Y0156547D01*
X0072187Y0155597D01*
X0072662Y0156420D01*
X0072546Y0156853D01*
X0071448Y0157487D01*
X0064082Y0157603D02*
X0062984Y0158237D01*
X0061134Y0155666D02*
X0062147Y0153617D01*
X0061676Y0152801D02*
X0060578Y0153435D01*
X0059712Y0153203D01*
X0059944Y0152337D01*
X0061042Y0151703D01*
X0060571Y0150888D02*
X0059937Y0149790D01*
X0060254Y0150339D02*
X0058607Y0151289D01*
X0058839Y0150424D01*
X0060219Y0152179D02*
X0060852Y0153277D01*
M02*
