G75*
%MOIN*%
%OFA0B0*%
%FSLAX25Y25*%
%IPPOS*%
%LPD*%
%AMOC8*
5,1,8,0,0,1.08239X$1,22.5*
%
%ADD10C,0.16548*%
%ADD11R,0.13792X0.09068*%
%ADD12C,0.20800*%
%ADD13R,0.10643X0.02769*%
%ADD14R,0.10643X0.08674*%
%ADD15C,0.04343*%
%ADD16R,0.05800X0.06587*%
%ADD17R,0.07887X0.13398*%
%ADD18R,0.13398X0.07887*%
D10*
X0084200Y0053200D03*
X0126500Y0041900D03*
X0168800Y0053200D03*
X0199800Y0084100D03*
X0211146Y0126500D03*
X0199728Y0168626D03*
X0168626Y0199728D03*
X0126500Y0211146D03*
X0083980Y0199728D03*
X0041854Y0126500D03*
X0053200Y0084100D03*
D11*
G36*
X0097931Y0067792D02*
X0091035Y0079736D01*
X0098887Y0084270D01*
X0105783Y0072326D01*
X0097931Y0067792D01*
G37*
G36*
X0169602Y0080327D02*
X0162706Y0068383D01*
X0154854Y0072917D01*
X0161750Y0084861D01*
X0169602Y0080327D01*
G37*
G36*
X0188146Y0130083D02*
X0181250Y0118139D01*
X0173398Y0122673D01*
X0180294Y0134617D01*
X0188146Y0130083D01*
G37*
X0100319Y0172091D03*
X0152681Y0180909D03*
G36*
X0064113Y0108730D02*
X0057217Y0120674D01*
X0065069Y0125208D01*
X0071965Y0113264D01*
X0064113Y0108730D01*
G37*
D12*
X0081500Y0096500D03*
X0171500Y0101500D03*
X0126500Y0176500D03*
D13*
G36*
X0056263Y0172781D02*
X0047047Y0178101D01*
X0048431Y0180499D01*
X0057647Y0175179D01*
X0056263Y0172781D01*
G37*
G36*
X0054688Y0170054D02*
X0045472Y0175374D01*
X0046856Y0177772D01*
X0056072Y0172452D01*
X0054688Y0170054D01*
G37*
G36*
X0053113Y0167326D02*
X0043897Y0172646D01*
X0045281Y0175044D01*
X0054497Y0169724D01*
X0053113Y0167326D01*
G37*
G36*
X0051538Y0164598D02*
X0042322Y0169918D01*
X0043706Y0172316D01*
X0052922Y0166996D01*
X0051538Y0164598D01*
G37*
G36*
X0049963Y0161871D02*
X0040747Y0167191D01*
X0042131Y0169589D01*
X0051347Y0164269D01*
X0049963Y0161871D01*
G37*
D14*
G36*
X0042778Y0149426D02*
X0033563Y0154747D01*
X0037900Y0162258D01*
X0047115Y0156937D01*
X0042778Y0149426D01*
G37*
G36*
X0024025Y0160253D02*
X0014810Y0165574D01*
X0019147Y0173085D01*
X0028362Y0167764D01*
X0024025Y0160253D01*
G37*
G36*
X0060494Y0180112D02*
X0051279Y0185433D01*
X0055616Y0192944D01*
X0064831Y0187623D01*
X0060494Y0180112D01*
G37*
G36*
X0041742Y0190939D02*
X0032527Y0196260D01*
X0036864Y0203771D01*
X0046079Y0198450D01*
X0041742Y0190939D01*
G37*
D15*
X0045004Y0183607D03*
X0036343Y0168605D03*
D16*
G36*
X0063754Y0149487D02*
X0066654Y0154508D01*
X0072356Y0151215D01*
X0069456Y0146194D01*
X0063754Y0149487D01*
G37*
G36*
X0080821Y0165876D02*
X0077921Y0160855D01*
X0072219Y0164148D01*
X0075119Y0169169D01*
X0080821Y0165876D01*
G37*
D17*
G36*
X0097018Y0134239D02*
X0090189Y0138182D01*
X0096888Y0149785D01*
X0103717Y0145842D01*
X0097018Y0134239D01*
G37*
G36*
X0116112Y0123215D02*
X0109283Y0127158D01*
X0115982Y0138761D01*
X0122811Y0134818D01*
X0116112Y0123215D01*
G37*
G36*
X0130189Y0134818D02*
X0137018Y0138761D01*
X0143717Y0127158D01*
X0136888Y0123215D01*
X0130189Y0134818D01*
G37*
G36*
X0149283Y0145842D02*
X0156112Y0149785D01*
X0162811Y0138182D01*
X0155982Y0134239D01*
X0149283Y0145842D01*
G37*
D18*
X0126500Y0112524D03*
X0126500Y0090476D03*
M02*
