G75*
%MOIN*%
%OFA0B0*%
%FSLAX25Y25*%
%IPPOS*%
%LPD*%
%AMOC8*
5,1,8,0,0,1.08239X$1,22.5*
%
%ADD10R,0.12992X0.08268*%
%ADD11C,0.20000*%
%ADD12R,0.09843X0.01969*%
%ADD13R,0.09843X0.07874*%
%ADD14R,0.05000X0.05787*%
%ADD15R,0.07087X0.12598*%
%ADD16R,0.12598X0.07087*%
D10*
G36*
X0098077Y0068339D02*
X0091581Y0079589D01*
X0098741Y0083723D01*
X0105237Y0072473D01*
X0098077Y0068339D01*
G37*
G36*
X0169056Y0080180D02*
X0162560Y0068930D01*
X0155400Y0073064D01*
X0161896Y0084314D01*
X0169056Y0080180D01*
G37*
G36*
X0187600Y0129936D02*
X0181104Y0118686D01*
X0173944Y0122820D01*
X0180440Y0134070D01*
X0187600Y0129936D01*
G37*
X0100319Y0172091D03*
X0152681Y0180909D03*
G36*
X0064259Y0109277D02*
X0057763Y0120527D01*
X0064923Y0124661D01*
X0071419Y0113411D01*
X0064259Y0109277D01*
G37*
D11*
X0081500Y0096500D03*
X0171500Y0101500D03*
X0126500Y0176500D03*
D12*
G36*
X0056116Y0173328D02*
X0047594Y0178248D01*
X0048578Y0179952D01*
X0057100Y0175032D01*
X0056116Y0173328D01*
G37*
G36*
X0054541Y0170601D02*
X0046019Y0175521D01*
X0047003Y0177225D01*
X0055525Y0172305D01*
X0054541Y0170601D01*
G37*
G36*
X0052966Y0167873D02*
X0044444Y0172793D01*
X0045428Y0174497D01*
X0053950Y0169577D01*
X0052966Y0167873D01*
G37*
G36*
X0051391Y0165145D02*
X0042869Y0170065D01*
X0043853Y0171769D01*
X0052375Y0166849D01*
X0051391Y0165145D01*
G37*
G36*
X0049816Y0162418D02*
X0041294Y0167338D01*
X0042278Y0169042D01*
X0050800Y0164122D01*
X0049816Y0162418D01*
G37*
D13*
G36*
X0042632Y0149972D02*
X0034109Y0154893D01*
X0038046Y0161712D01*
X0046569Y0156791D01*
X0042632Y0149972D01*
G37*
G36*
X0023879Y0160799D02*
X0015356Y0165720D01*
X0019293Y0172539D01*
X0027816Y0167618D01*
X0023879Y0160799D01*
G37*
G36*
X0060348Y0180658D02*
X0051825Y0185579D01*
X0055762Y0192398D01*
X0064285Y0187477D01*
X0060348Y0180658D01*
G37*
G36*
X0041596Y0191485D02*
X0033073Y0196406D01*
X0037010Y0203225D01*
X0045533Y0198304D01*
X0041596Y0191485D01*
G37*
D14*
G36*
X0080275Y0165730D02*
X0077775Y0161401D01*
X0072765Y0164294D01*
X0075265Y0168623D01*
X0080275Y0165730D01*
G37*
G36*
X0064300Y0149633D02*
X0066800Y0153962D01*
X0071810Y0151069D01*
X0069310Y0146740D01*
X0064300Y0149633D01*
G37*
D15*
G36*
X0096872Y0134786D02*
X0090736Y0138329D01*
X0097034Y0149238D01*
X0103170Y0145695D01*
X0096872Y0134786D01*
G37*
G36*
X0115966Y0123762D02*
X0109830Y0127305D01*
X0116128Y0138214D01*
X0122264Y0134671D01*
X0115966Y0123762D01*
G37*
G36*
X0130736Y0134671D02*
X0136872Y0138214D01*
X0143170Y0127305D01*
X0137034Y0123762D01*
X0130736Y0134671D01*
G37*
G36*
X0149830Y0145695D02*
X0155966Y0149238D01*
X0162264Y0138329D01*
X0156128Y0134786D01*
X0149830Y0145695D01*
G37*
D16*
X0126500Y0112524D03*
X0126500Y0090476D03*
M02*
