G75*
%MOIN*%
%OFA0B0*%
%FSLAX25Y25*%
%IPPOS*%
%LPD*%
%AMOC8*
5,1,8,0,0,1.08239X$1,22.5*
%
%ADD10C,0.03378*%
%ADD11C,0.01000*%
%ADD12C,0.05000*%
D10*
X0103500Y0066500D03*
X0126500Y0125500D03*
X0081500Y0152500D03*
X0056650Y0159106D03*
X0089100Y0172100D03*
X0186500Y0136500D03*
D11*
X0086607Y0039487D02*
X0076225Y0045043D01*
X0066604Y0051831D01*
X0057890Y0059749D01*
X0050213Y0068677D01*
X0050213Y0068677D01*
X0043690Y0078480D01*
X0038421Y0089009D01*
X0034484Y0100106D01*
X0031939Y0111602D01*
X0030825Y0123324D01*
X0031158Y0135094D01*
X0031867Y0140941D01*
X0032153Y0142812D01*
X0031594Y0146556D01*
X0029954Y0149969D01*
X0027380Y0152745D01*
X0025741Y0153692D01*
X0025540Y0153808D01*
X0017884Y0158228D01*
X0017499Y0158450D01*
X0017419Y0158496D01*
X0016400Y0159210D01*
X0014806Y0161107D01*
X0013957Y0163436D01*
X0013953Y0165914D01*
X0014273Y0167116D01*
X0014273Y0167116D01*
X0016172Y0172023D01*
X0020610Y0181562D01*
X0025870Y0190673D01*
X0031912Y0199285D01*
X0035212Y0203383D01*
X0035212Y0203383D01*
X0036093Y0204261D01*
X0038241Y0205498D01*
X0040682Y0205926D01*
X0043123Y0205494D01*
X0044250Y0204968D01*
X0044715Y0204700D01*
X0052763Y0200054D01*
X0054211Y0199217D01*
X0057902Y0198377D01*
X0057902Y0198377D01*
X0061677Y0198663D01*
X0061677Y0198663D01*
X0065200Y0200051D01*
X0066677Y0201234D01*
X0071387Y0204771D01*
X0081413Y0210945D01*
X0092121Y0215841D01*
X0103350Y0219385D01*
X0114928Y0221524D01*
X0126682Y0222225D01*
X0138433Y0221478D01*
X0150003Y0219294D01*
X0161218Y0215706D01*
X0171907Y0210768D01*
X0181909Y0204555D01*
X0191072Y0197161D01*
X0199259Y0188698D01*
X0206344Y0179294D01*
X0212221Y0169091D01*
X0216801Y0158244D01*
X0220015Y0146917D01*
X0221814Y0135280D01*
X0222170Y0123511D01*
X0221079Y0111787D01*
X0218557Y0100286D01*
X0214642Y0089182D01*
X0209393Y0078642D01*
X0202890Y0068826D01*
X0195230Y0059883D01*
X0186531Y0051948D01*
X0176924Y0045141D01*
X0166553Y0039566D01*
X0155576Y0035305D01*
X0144159Y0032425D01*
X0132475Y0030968D01*
X0120701Y0030956D01*
X0109014Y0032390D01*
X0097592Y0035248D01*
X0086607Y0039487D01*
X0086341Y0039630D02*
X0116368Y0039630D01*
X0116126Y0040534D02*
X0116833Y0037896D01*
X0118199Y0035530D01*
X0120130Y0033599D01*
X0122496Y0032233D01*
X0125134Y0031526D01*
X0127866Y0031526D01*
X0130504Y0032233D01*
X0132870Y0033599D01*
X0134801Y0035530D01*
X0136167Y0037896D01*
X0136874Y0040534D01*
X0136874Y0043266D01*
X0136167Y0045904D01*
X0134801Y0048270D01*
X0132870Y0050201D01*
X0130504Y0051567D01*
X0127866Y0052274D01*
X0125134Y0052274D01*
X0122496Y0051567D01*
X0120130Y0050201D01*
X0118199Y0048270D01*
X0116833Y0045904D01*
X0116126Y0043266D01*
X0116126Y0040534D01*
X0116126Y0040628D02*
X0084475Y0040628D01*
X0082609Y0041627D02*
X0116126Y0041627D01*
X0116126Y0042625D02*
X0080743Y0042625D01*
X0080196Y0043533D02*
X0082834Y0042826D01*
X0085566Y0042826D01*
X0088204Y0043533D01*
X0090570Y0044899D01*
X0092501Y0046830D01*
X0093867Y0049196D01*
X0094574Y0051834D01*
X0094574Y0054566D01*
X0093867Y0057204D01*
X0092501Y0059570D01*
X0090570Y0061501D01*
X0088204Y0062867D01*
X0085566Y0063574D01*
X0082834Y0063574D01*
X0080196Y0062867D01*
X0077830Y0061501D01*
X0075899Y0059570D01*
X0074533Y0057204D01*
X0073826Y0054566D01*
X0073826Y0051834D01*
X0074533Y0049196D01*
X0075899Y0046830D01*
X0077830Y0044899D01*
X0080196Y0043533D01*
X0080039Y0043624D02*
X0078877Y0043624D01*
X0078309Y0044622D02*
X0077011Y0044622D01*
X0077108Y0045621D02*
X0075406Y0045621D01*
X0076110Y0046619D02*
X0073991Y0046619D01*
X0072576Y0047618D02*
X0075444Y0047618D01*
X0074868Y0048616D02*
X0071160Y0048616D01*
X0069745Y0049615D02*
X0074421Y0049615D01*
X0074153Y0050613D02*
X0068330Y0050613D01*
X0066915Y0051612D02*
X0073886Y0051612D01*
X0073826Y0052610D02*
X0065746Y0052610D01*
X0064647Y0053609D02*
X0073826Y0053609D01*
X0073837Y0054607D02*
X0063548Y0054607D01*
X0062449Y0055606D02*
X0074105Y0055606D01*
X0074372Y0056604D02*
X0061350Y0056604D01*
X0060251Y0057603D02*
X0074763Y0057603D01*
X0075340Y0058601D02*
X0059152Y0058601D01*
X0058053Y0059600D02*
X0075929Y0059600D01*
X0076927Y0060598D02*
X0057159Y0060598D01*
X0056300Y0061597D02*
X0077996Y0061597D01*
X0079725Y0062595D02*
X0055442Y0062595D01*
X0054583Y0063594D02*
X0198408Y0063594D01*
X0197553Y0062595D02*
X0173275Y0062595D01*
X0172804Y0062867D02*
X0170166Y0063574D01*
X0167434Y0063574D01*
X0164796Y0062867D01*
X0162430Y0061501D01*
X0160499Y0059570D01*
X0159133Y0057204D01*
X0158426Y0054566D01*
X0158426Y0051834D01*
X0159133Y0049196D01*
X0160499Y0046830D01*
X0162430Y0044899D01*
X0164796Y0043533D01*
X0167434Y0042826D01*
X0170166Y0042826D01*
X0172804Y0043533D01*
X0175170Y0044899D01*
X0177101Y0046830D01*
X0178467Y0049196D01*
X0179174Y0051834D01*
X0179174Y0054566D01*
X0178467Y0057204D01*
X0177101Y0059570D01*
X0175170Y0061501D01*
X0172804Y0062867D01*
X0175004Y0061597D02*
X0196698Y0061597D01*
X0195843Y0060598D02*
X0176073Y0060598D01*
X0177071Y0059600D02*
X0194920Y0059600D01*
X0193825Y0058601D02*
X0177660Y0058601D01*
X0178237Y0057603D02*
X0192730Y0057603D01*
X0191636Y0056604D02*
X0178628Y0056604D01*
X0178895Y0055606D02*
X0190541Y0055606D01*
X0189446Y0054607D02*
X0179163Y0054607D01*
X0179174Y0053609D02*
X0188352Y0053609D01*
X0187257Y0052610D02*
X0179174Y0052610D01*
X0179114Y0051612D02*
X0186056Y0051612D01*
X0184647Y0050613D02*
X0178847Y0050613D01*
X0178579Y0049615D02*
X0183237Y0049615D01*
X0181828Y0048616D02*
X0178132Y0048616D01*
X0177556Y0047618D02*
X0180419Y0047618D01*
X0179009Y0046619D02*
X0176890Y0046619D01*
X0177600Y0045621D02*
X0175892Y0045621D01*
X0175958Y0044622D02*
X0174691Y0044622D01*
X0174101Y0043624D02*
X0172961Y0043624D01*
X0172243Y0042625D02*
X0136874Y0042625D01*
X0136874Y0041627D02*
X0170386Y0041627D01*
X0168529Y0040628D02*
X0136874Y0040628D01*
X0136632Y0039630D02*
X0166672Y0039630D01*
X0164145Y0038631D02*
X0136364Y0038631D01*
X0136015Y0037632D02*
X0161573Y0037632D01*
X0159000Y0036634D02*
X0135439Y0036634D01*
X0134862Y0035635D02*
X0156427Y0035635D01*
X0152928Y0034637D02*
X0133908Y0034637D01*
X0132910Y0033638D02*
X0148971Y0033638D01*
X0145013Y0032640D02*
X0131209Y0032640D01*
X0128297Y0031641D02*
X0137879Y0031641D01*
X0124703Y0031641D02*
X0115116Y0031641D01*
X0119092Y0034637D02*
X0100035Y0034637D01*
X0096588Y0035635D02*
X0118138Y0035635D01*
X0117561Y0036634D02*
X0094001Y0036634D01*
X0091413Y0037632D02*
X0116985Y0037632D01*
X0116636Y0038631D02*
X0088826Y0038631D01*
X0088361Y0043624D02*
X0116222Y0043624D01*
X0116489Y0044622D02*
X0090091Y0044622D01*
X0091292Y0045621D02*
X0116757Y0045621D01*
X0117246Y0046619D02*
X0092290Y0046619D01*
X0092956Y0047618D02*
X0117822Y0047618D01*
X0118545Y0048616D02*
X0093532Y0048616D01*
X0093979Y0049615D02*
X0119544Y0049615D01*
X0120844Y0050613D02*
X0094247Y0050613D01*
X0094514Y0051612D02*
X0122662Y0051612D01*
X0130338Y0051612D02*
X0158486Y0051612D01*
X0158426Y0052610D02*
X0094574Y0052610D01*
X0094574Y0053609D02*
X0158426Y0053609D01*
X0158437Y0054607D02*
X0094563Y0054607D01*
X0094295Y0055606D02*
X0158705Y0055606D01*
X0158972Y0056604D02*
X0094028Y0056604D01*
X0093637Y0057603D02*
X0159363Y0057603D01*
X0159940Y0058601D02*
X0093060Y0058601D01*
X0092471Y0059600D02*
X0160529Y0059600D01*
X0161527Y0060598D02*
X0091473Y0060598D01*
X0090404Y0061597D02*
X0162596Y0061597D01*
X0164325Y0062595D02*
X0088675Y0062595D01*
X0061501Y0077730D02*
X0062867Y0080096D01*
X0063574Y0082734D01*
X0063574Y0085466D01*
X0062867Y0088104D01*
X0061501Y0090470D01*
X0059570Y0092401D01*
X0057204Y0093767D01*
X0054566Y0094474D01*
X0051834Y0094474D01*
X0049196Y0093767D01*
X0046830Y0092401D01*
X0044899Y0090470D01*
X0043533Y0088104D01*
X0042826Y0085466D01*
X0042826Y0082734D01*
X0043533Y0080096D01*
X0044899Y0077730D01*
X0046830Y0075799D01*
X0049196Y0074433D01*
X0051834Y0073726D01*
X0054566Y0073726D01*
X0057204Y0074433D01*
X0059570Y0075799D01*
X0061501Y0077730D01*
X0061344Y0077573D02*
X0191656Y0077573D01*
X0191499Y0077730D02*
X0193430Y0075799D01*
X0195796Y0074433D01*
X0198434Y0073726D01*
X0201166Y0073726D01*
X0203804Y0074433D01*
X0206170Y0075799D01*
X0208101Y0077730D01*
X0209467Y0080096D01*
X0210174Y0082734D01*
X0210174Y0085466D01*
X0209467Y0088104D01*
X0208101Y0090470D01*
X0206170Y0092401D01*
X0203804Y0093767D01*
X0201166Y0094474D01*
X0198434Y0094474D01*
X0195796Y0093767D01*
X0193430Y0092401D01*
X0191499Y0090470D01*
X0190133Y0088104D01*
X0189426Y0085466D01*
X0189426Y0082734D01*
X0190133Y0080096D01*
X0191499Y0077730D01*
X0191013Y0078571D02*
X0061987Y0078571D01*
X0062563Y0079570D02*
X0190437Y0079570D01*
X0190006Y0080568D02*
X0062994Y0080568D01*
X0063261Y0081567D02*
X0189739Y0081567D01*
X0189471Y0082566D02*
X0063529Y0082566D01*
X0063574Y0083564D02*
X0189426Y0083564D01*
X0189426Y0084563D02*
X0063574Y0084563D01*
X0063548Y0085561D02*
X0189452Y0085561D01*
X0189719Y0086560D02*
X0063281Y0086560D01*
X0063013Y0087558D02*
X0189987Y0087558D01*
X0190394Y0088557D02*
X0062606Y0088557D01*
X0062029Y0089555D02*
X0190971Y0089555D01*
X0191583Y0090554D02*
X0061417Y0090554D01*
X0060419Y0091552D02*
X0192581Y0091552D01*
X0193689Y0092551D02*
X0059311Y0092551D01*
X0057582Y0093549D02*
X0195418Y0093549D01*
X0204182Y0093549D02*
X0216182Y0093549D01*
X0215830Y0092551D02*
X0205911Y0092551D01*
X0207019Y0091552D02*
X0215478Y0091552D01*
X0215126Y0090554D02*
X0208017Y0090554D01*
X0208629Y0089555D02*
X0214773Y0089555D01*
X0214331Y0088557D02*
X0209206Y0088557D01*
X0209613Y0087558D02*
X0213833Y0087558D01*
X0213336Y0086560D02*
X0209881Y0086560D01*
X0210148Y0085561D02*
X0212839Y0085561D01*
X0212341Y0084563D02*
X0210174Y0084563D01*
X0210174Y0083564D02*
X0211844Y0083564D01*
X0211347Y0082566D02*
X0210129Y0082566D01*
X0209861Y0081567D02*
X0210850Y0081567D01*
X0210352Y0080568D02*
X0209594Y0080568D01*
X0209855Y0079570D02*
X0209163Y0079570D01*
X0209346Y0078571D02*
X0208587Y0078571D01*
X0208685Y0077573D02*
X0207944Y0077573D01*
X0208023Y0076574D02*
X0206945Y0076574D01*
X0207362Y0075576D02*
X0205784Y0075576D01*
X0206700Y0074577D02*
X0204054Y0074577D01*
X0206038Y0073579D02*
X0046951Y0073579D01*
X0046287Y0074577D02*
X0048946Y0074577D01*
X0047216Y0075576D02*
X0045622Y0075576D01*
X0046054Y0076574D02*
X0044958Y0076574D01*
X0045056Y0077573D02*
X0044294Y0077573D01*
X0044413Y0078571D02*
X0043644Y0078571D01*
X0043837Y0079570D02*
X0043145Y0079570D01*
X0043406Y0080568D02*
X0042645Y0080568D01*
X0043139Y0081567D02*
X0042145Y0081567D01*
X0041645Y0082566D02*
X0042871Y0082566D01*
X0042826Y0083564D02*
X0041146Y0083564D01*
X0040646Y0084563D02*
X0042826Y0084563D01*
X0042852Y0085561D02*
X0040146Y0085561D01*
X0039647Y0086560D02*
X0043119Y0086560D01*
X0043387Y0087558D02*
X0039147Y0087558D01*
X0038647Y0088557D02*
X0043794Y0088557D01*
X0044371Y0089555D02*
X0038227Y0089555D01*
X0037873Y0090554D02*
X0044983Y0090554D01*
X0045981Y0091552D02*
X0037519Y0091552D01*
X0037164Y0092551D02*
X0047089Y0092551D01*
X0048818Y0093549D02*
X0036810Y0093549D01*
X0036456Y0094548D02*
X0216534Y0094548D01*
X0216886Y0095546D02*
X0036102Y0095546D01*
X0035747Y0096545D02*
X0217238Y0096545D01*
X0217590Y0097543D02*
X0035393Y0097543D01*
X0035039Y0098542D02*
X0217942Y0098542D01*
X0218294Y0099540D02*
X0034684Y0099540D01*
X0034388Y0100539D02*
X0218612Y0100539D01*
X0218831Y0101537D02*
X0034167Y0101537D01*
X0033946Y0102536D02*
X0219050Y0102536D01*
X0219269Y0103534D02*
X0033725Y0103534D01*
X0033504Y0104533D02*
X0219488Y0104533D01*
X0219707Y0105531D02*
X0033283Y0105531D01*
X0033062Y0106530D02*
X0219926Y0106530D01*
X0220145Y0107528D02*
X0032841Y0107528D01*
X0032620Y0108527D02*
X0220364Y0108527D01*
X0220583Y0109525D02*
X0032399Y0109525D01*
X0032178Y0110524D02*
X0220802Y0110524D01*
X0221021Y0111522D02*
X0031957Y0111522D01*
X0031852Y0112521D02*
X0221148Y0112521D01*
X0221241Y0113519D02*
X0031757Y0113519D01*
X0031662Y0114518D02*
X0221333Y0114518D01*
X0221426Y0115516D02*
X0031567Y0115516D01*
X0031472Y0116515D02*
X0039037Y0116515D01*
X0037850Y0116833D02*
X0040489Y0116126D01*
X0043220Y0116126D01*
X0045859Y0116833D01*
X0048224Y0118199D01*
X0050156Y0120130D01*
X0051521Y0122496D01*
X0052228Y0125134D01*
X0052228Y0127866D01*
X0051521Y0130504D01*
X0050156Y0132870D01*
X0048224Y0134801D01*
X0045859Y0136167D01*
X0043220Y0136874D01*
X0040489Y0136874D01*
X0037850Y0136167D01*
X0035485Y0134801D01*
X0033553Y0132870D01*
X0032187Y0130504D01*
X0031480Y0127866D01*
X0031480Y0125134D01*
X0032187Y0122496D01*
X0033553Y0120130D01*
X0035485Y0118199D01*
X0037850Y0116833D01*
X0036672Y0117513D02*
X0031377Y0117513D01*
X0031282Y0118512D02*
X0035171Y0118512D01*
X0034173Y0119510D02*
X0031187Y0119510D01*
X0031092Y0120509D02*
X0033334Y0120509D01*
X0032758Y0121507D02*
X0030998Y0121507D01*
X0030903Y0122506D02*
X0032185Y0122506D01*
X0031917Y0123504D02*
X0030830Y0123504D01*
X0030858Y0124503D02*
X0031649Y0124503D01*
X0031480Y0125501D02*
X0030887Y0125501D01*
X0030915Y0126500D02*
X0031480Y0126500D01*
X0031480Y0127499D02*
X0030943Y0127499D01*
X0030971Y0128497D02*
X0031649Y0128497D01*
X0031917Y0129496D02*
X0031000Y0129496D01*
X0031028Y0130494D02*
X0032185Y0130494D01*
X0032758Y0131493D02*
X0031056Y0131493D01*
X0031085Y0132491D02*
X0033334Y0132491D01*
X0034173Y0133490D02*
X0031113Y0133490D01*
X0031141Y0134488D02*
X0035171Y0134488D01*
X0036672Y0135487D02*
X0031206Y0135487D01*
X0031327Y0136485D02*
X0039037Y0136485D01*
X0044671Y0136485D02*
X0098473Y0136485D01*
X0096809Y0137484D02*
X0031448Y0137484D01*
X0031569Y0138482D02*
X0095145Y0138482D01*
X0093481Y0139481D02*
X0031690Y0139481D01*
X0031811Y0140479D02*
X0091816Y0140479D01*
X0090152Y0141478D02*
X0031949Y0141478D01*
X0031867Y0140941D02*
X0031867Y0140941D01*
X0032101Y0142476D02*
X0088488Y0142476D01*
X0086824Y0143475D02*
X0032054Y0143475D01*
X0032153Y0142812D02*
X0032153Y0142812D01*
X0031905Y0144473D02*
X0085160Y0144473D01*
X0083496Y0145472D02*
X0031756Y0145472D01*
X0031607Y0146470D02*
X0081831Y0146470D01*
X0080167Y0147469D02*
X0031155Y0147469D01*
X0031594Y0146556D02*
X0031594Y0146556D01*
X0030676Y0148467D02*
X0078503Y0148467D01*
X0078075Y0148724D02*
X0076891Y0150322D01*
X0076408Y0152252D01*
X0076701Y0154220D01*
X0077724Y0155925D01*
X0079322Y0157109D01*
X0081252Y0157592D01*
X0083220Y0157299D01*
X0129925Y0129276D01*
X0131109Y0127678D01*
X0131592Y0125748D01*
X0131299Y0123780D01*
X0130276Y0122075D01*
X0128678Y0120891D01*
X0126748Y0120408D01*
X0124780Y0120701D01*
X0078075Y0148724D01*
X0077525Y0149466D02*
X0030196Y0149466D01*
X0029954Y0149969D02*
X0029954Y0149969D01*
X0029495Y0150464D02*
X0076855Y0150464D01*
X0076605Y0151463D02*
X0028569Y0151463D01*
X0027644Y0152461D02*
X0076439Y0152461D01*
X0076588Y0153460D02*
X0026143Y0153460D01*
X0027380Y0152745D02*
X0027380Y0152745D01*
X0024413Y0154458D02*
X0076844Y0154458D01*
X0077443Y0155457D02*
X0022684Y0155457D01*
X0020954Y0156455D02*
X0078440Y0156455D01*
X0080700Y0157454D02*
X0019225Y0157454D01*
X0017884Y0158228D02*
X0017884Y0158228D01*
X0017495Y0158452D02*
X0197615Y0158452D01*
X0198363Y0158252D02*
X0195724Y0158959D01*
X0193359Y0160325D01*
X0191427Y0162256D01*
X0190061Y0164622D01*
X0189354Y0167260D01*
X0189354Y0169992D01*
X0190061Y0172630D01*
X0191427Y0174996D01*
X0193359Y0176927D01*
X0195724Y0178293D01*
X0198363Y0179000D01*
X0201094Y0179000D01*
X0203733Y0178293D01*
X0206098Y0176927D01*
X0208030Y0174996D01*
X0209395Y0172630D01*
X0210102Y0169992D01*
X0210102Y0167260D01*
X0209395Y0164622D01*
X0208030Y0162256D01*
X0206098Y0160325D01*
X0203733Y0158959D01*
X0201094Y0158252D01*
X0198363Y0158252D01*
X0201842Y0158452D02*
X0216713Y0158452D01*
X0217026Y0157454D02*
X0082180Y0157454D01*
X0084626Y0156455D02*
X0217309Y0156455D01*
X0217592Y0155457D02*
X0086290Y0155457D01*
X0087954Y0154458D02*
X0217876Y0154458D01*
X0218159Y0153460D02*
X0089619Y0153460D01*
X0091283Y0152461D02*
X0218442Y0152461D01*
X0218725Y0151463D02*
X0092947Y0151463D01*
X0094611Y0150464D02*
X0219009Y0150464D01*
X0219292Y0149466D02*
X0096275Y0149466D01*
X0097939Y0148467D02*
X0219575Y0148467D01*
X0219859Y0147469D02*
X0099604Y0147469D01*
X0101268Y0146470D02*
X0220084Y0146470D01*
X0220239Y0145472D02*
X0102932Y0145472D01*
X0104596Y0144473D02*
X0220393Y0144473D01*
X0220547Y0143475D02*
X0106260Y0143475D01*
X0107925Y0142476D02*
X0220702Y0142476D01*
X0220856Y0141478D02*
X0109589Y0141478D01*
X0111253Y0140479D02*
X0221010Y0140479D01*
X0221165Y0139481D02*
X0112917Y0139481D01*
X0114581Y0138482D02*
X0221319Y0138482D01*
X0221473Y0137484D02*
X0116246Y0137484D01*
X0117910Y0136485D02*
X0208329Y0136485D01*
X0207141Y0136167D02*
X0204776Y0134801D01*
X0202844Y0132870D01*
X0201479Y0130504D01*
X0200772Y0127866D01*
X0200772Y0125134D01*
X0201479Y0122496D01*
X0202844Y0120130D01*
X0204776Y0118199D01*
X0207141Y0116833D01*
X0209780Y0116126D01*
X0212511Y0116126D01*
X0215150Y0116833D01*
X0217515Y0118199D01*
X0219447Y0120130D01*
X0220813Y0122496D01*
X0221520Y0125134D01*
X0221520Y0127866D01*
X0220813Y0130504D01*
X0219447Y0132870D01*
X0217515Y0134801D01*
X0215150Y0136167D01*
X0212511Y0136874D01*
X0209780Y0136874D01*
X0207141Y0136167D01*
X0205963Y0135487D02*
X0119574Y0135487D01*
X0121238Y0134488D02*
X0204463Y0134488D01*
X0203464Y0133490D02*
X0122902Y0133490D01*
X0124566Y0132491D02*
X0202626Y0132491D01*
X0202049Y0131493D02*
X0126231Y0131493D01*
X0127895Y0130494D02*
X0201476Y0130494D01*
X0201208Y0129496D02*
X0129559Y0129496D01*
X0130502Y0128497D02*
X0200941Y0128497D01*
X0200772Y0127499D02*
X0131154Y0127499D01*
X0131404Y0126500D02*
X0200772Y0126500D01*
X0200772Y0125501D02*
X0131555Y0125501D01*
X0131407Y0124503D02*
X0200941Y0124503D01*
X0201208Y0123504D02*
X0131134Y0123504D01*
X0130535Y0122506D02*
X0201476Y0122506D01*
X0202049Y0121507D02*
X0129510Y0121507D01*
X0127151Y0120509D02*
X0202626Y0120509D01*
X0203464Y0119510D02*
X0049536Y0119510D01*
X0050374Y0120509D02*
X0126070Y0120509D01*
X0123436Y0121507D02*
X0050951Y0121507D01*
X0051524Y0122506D02*
X0121772Y0122506D01*
X0120108Y0123504D02*
X0051792Y0123504D01*
X0052059Y0124503D02*
X0118443Y0124503D01*
X0116779Y0125501D02*
X0052228Y0125501D01*
X0052228Y0126500D02*
X0115115Y0126500D01*
X0113451Y0127499D02*
X0052228Y0127499D01*
X0052059Y0128497D02*
X0111787Y0128497D01*
X0110123Y0129496D02*
X0051792Y0129496D01*
X0051524Y0130494D02*
X0108458Y0130494D01*
X0106794Y0131493D02*
X0050951Y0131493D01*
X0050374Y0132491D02*
X0105130Y0132491D01*
X0103466Y0133490D02*
X0049536Y0133490D01*
X0048537Y0134488D02*
X0101802Y0134488D01*
X0100137Y0135487D02*
X0047037Y0135487D01*
X0048537Y0118512D02*
X0204463Y0118512D01*
X0205963Y0117513D02*
X0047037Y0117513D01*
X0044671Y0116515D02*
X0208328Y0116515D01*
X0213963Y0116515D02*
X0221519Y0116515D01*
X0221612Y0117513D02*
X0216328Y0117513D01*
X0217829Y0118512D02*
X0221705Y0118512D01*
X0221798Y0119510D02*
X0218827Y0119510D01*
X0219666Y0120509D02*
X0221891Y0120509D01*
X0221984Y0121507D02*
X0220242Y0121507D01*
X0220815Y0122506D02*
X0222077Y0122506D01*
X0222170Y0123504D02*
X0221083Y0123504D01*
X0221351Y0124503D02*
X0222140Y0124503D01*
X0222110Y0125501D02*
X0221520Y0125501D01*
X0221520Y0126500D02*
X0222080Y0126500D01*
X0222050Y0127499D02*
X0221520Y0127499D01*
X0221351Y0128497D02*
X0222019Y0128497D01*
X0221989Y0129496D02*
X0221083Y0129496D01*
X0220815Y0130494D02*
X0221959Y0130494D01*
X0221929Y0131493D02*
X0220242Y0131493D01*
X0219666Y0132491D02*
X0221898Y0132491D01*
X0221868Y0133490D02*
X0218827Y0133490D01*
X0217829Y0134488D02*
X0221838Y0134488D01*
X0221782Y0135487D02*
X0216328Y0135487D01*
X0213963Y0136485D02*
X0221628Y0136485D01*
X0216292Y0159451D02*
X0204585Y0159451D01*
X0206223Y0160449D02*
X0215870Y0160449D01*
X0215449Y0161448D02*
X0207221Y0161448D01*
X0208139Y0162446D02*
X0215027Y0162446D01*
X0214605Y0163445D02*
X0208716Y0163445D01*
X0209292Y0164443D02*
X0214184Y0164443D01*
X0213762Y0165442D02*
X0209615Y0165442D01*
X0209883Y0166440D02*
X0213341Y0166440D01*
X0212919Y0167439D02*
X0210102Y0167439D01*
X0210102Y0168437D02*
X0212497Y0168437D01*
X0212023Y0169436D02*
X0210102Y0169436D01*
X0209984Y0170434D02*
X0211448Y0170434D01*
X0210872Y0171433D02*
X0209716Y0171433D01*
X0209449Y0172432D02*
X0210297Y0172432D01*
X0209722Y0173430D02*
X0208934Y0173430D01*
X0209147Y0174429D02*
X0208357Y0174429D01*
X0208572Y0175427D02*
X0207598Y0175427D01*
X0207996Y0176426D02*
X0206600Y0176426D01*
X0207421Y0177424D02*
X0205238Y0177424D01*
X0206846Y0178423D02*
X0203249Y0178423D01*
X0205496Y0180420D02*
X0047857Y0180420D01*
X0047424Y0179986D02*
X0048625Y0181188D01*
X0049276Y0182758D01*
X0049276Y0184457D01*
X0048625Y0186027D01*
X0047424Y0187229D01*
X0045854Y0187879D01*
X0044154Y0187879D01*
X0042584Y0187229D01*
X0041383Y0186027D01*
X0040732Y0184457D01*
X0040732Y0182758D01*
X0041383Y0181188D01*
X0042584Y0179986D01*
X0044154Y0179336D01*
X0045854Y0179336D01*
X0047424Y0179986D01*
X0046060Y0179421D02*
X0206248Y0179421D01*
X0204744Y0181418D02*
X0048721Y0181418D01*
X0049134Y0182417D02*
X0203991Y0182417D01*
X0203239Y0183415D02*
X0049276Y0183415D01*
X0049276Y0184414D02*
X0202487Y0184414D01*
X0201734Y0185412D02*
X0048880Y0185412D01*
X0048242Y0186411D02*
X0200982Y0186411D01*
X0200230Y0187409D02*
X0046988Y0187409D01*
X0043020Y0187409D02*
X0023986Y0187409D01*
X0023409Y0186411D02*
X0041766Y0186411D01*
X0041128Y0185412D02*
X0022833Y0185412D01*
X0022256Y0184414D02*
X0040732Y0184414D01*
X0040732Y0183415D02*
X0021680Y0183415D01*
X0021103Y0182417D02*
X0040874Y0182417D01*
X0041287Y0181418D02*
X0020543Y0181418D01*
X0020078Y0180420D02*
X0042151Y0180420D01*
X0043948Y0179421D02*
X0019614Y0179421D01*
X0019149Y0178423D02*
X0196208Y0178423D01*
X0194219Y0177424D02*
X0018685Y0177424D01*
X0018220Y0176426D02*
X0192857Y0176426D01*
X0191858Y0175427D02*
X0017756Y0175427D01*
X0017291Y0174429D02*
X0191100Y0174429D01*
X0190523Y0173430D02*
X0016827Y0173430D01*
X0016362Y0172432D02*
X0034418Y0172432D01*
X0033923Y0172227D02*
X0032721Y0171025D01*
X0032071Y0169455D01*
X0032071Y0167756D01*
X0032721Y0166186D01*
X0033923Y0164984D01*
X0035493Y0164334D01*
X0037192Y0164334D01*
X0038762Y0164984D01*
X0039964Y0166186D01*
X0040614Y0167756D01*
X0040614Y0169455D01*
X0039964Y0171025D01*
X0038762Y0172227D01*
X0037192Y0172877D01*
X0035493Y0172877D01*
X0033923Y0172227D01*
X0033129Y0171433D02*
X0015944Y0171433D01*
X0015558Y0170434D02*
X0032477Y0170434D01*
X0032071Y0169436D02*
X0015171Y0169436D01*
X0014785Y0168437D02*
X0032071Y0168437D01*
X0032202Y0167439D02*
X0014398Y0167439D01*
X0014093Y0166440D02*
X0032616Y0166440D01*
X0033465Y0165442D02*
X0013954Y0165442D01*
X0013955Y0164443D02*
X0035228Y0164443D01*
X0037457Y0164443D02*
X0190164Y0164443D01*
X0189842Y0165442D02*
X0039220Y0165442D01*
X0040069Y0166440D02*
X0189574Y0166440D01*
X0189354Y0167439D02*
X0040483Y0167439D01*
X0040614Y0168437D02*
X0189354Y0168437D01*
X0189354Y0169436D02*
X0040614Y0169436D01*
X0040208Y0170434D02*
X0189473Y0170434D01*
X0189741Y0171433D02*
X0039556Y0171433D01*
X0038268Y0172432D02*
X0190008Y0172432D01*
X0190741Y0163445D02*
X0013957Y0163445D01*
X0014318Y0162446D02*
X0191317Y0162446D01*
X0192235Y0161448D02*
X0014682Y0161448D01*
X0015359Y0160449D02*
X0193234Y0160449D01*
X0194872Y0159451D02*
X0016198Y0159451D01*
X0024562Y0188408D02*
X0199477Y0188408D01*
X0198574Y0189406D02*
X0170185Y0189406D01*
X0169992Y0189354D02*
X0172630Y0190061D01*
X0174996Y0191427D01*
X0176927Y0193359D01*
X0178293Y0195724D01*
X0179000Y0198363D01*
X0179000Y0201094D01*
X0178293Y0203733D01*
X0176927Y0206098D01*
X0174996Y0208030D01*
X0172630Y0209395D01*
X0169992Y0210102D01*
X0167260Y0210102D01*
X0164622Y0209395D01*
X0162256Y0208030D01*
X0160325Y0206098D01*
X0158959Y0203733D01*
X0158252Y0201094D01*
X0158252Y0198363D01*
X0158959Y0195724D01*
X0160325Y0193359D01*
X0162256Y0191427D01*
X0164622Y0190061D01*
X0167260Y0189354D01*
X0169992Y0189354D01*
X0167067Y0189406D02*
X0085540Y0189406D01*
X0085346Y0189354D02*
X0087985Y0190061D01*
X0090350Y0191427D01*
X0092282Y0193359D01*
X0093647Y0195724D01*
X0094354Y0198363D01*
X0094354Y0201094D01*
X0093647Y0203733D01*
X0092282Y0206098D01*
X0090350Y0208030D01*
X0087985Y0209395D01*
X0085346Y0210102D01*
X0082615Y0210102D01*
X0079976Y0209395D01*
X0077611Y0208030D01*
X0075679Y0206098D01*
X0074313Y0203733D01*
X0073606Y0201094D01*
X0073606Y0198363D01*
X0074313Y0195724D01*
X0075679Y0193359D01*
X0077611Y0191427D01*
X0079976Y0190061D01*
X0082615Y0189354D01*
X0085346Y0189354D01*
X0082421Y0189406D02*
X0025139Y0189406D01*
X0025715Y0190405D02*
X0079381Y0190405D01*
X0077652Y0191403D02*
X0026382Y0191403D01*
X0027083Y0192402D02*
X0076636Y0192402D01*
X0075655Y0193400D02*
X0027783Y0193400D01*
X0028484Y0194399D02*
X0075078Y0194399D01*
X0074502Y0195397D02*
X0029185Y0195397D01*
X0029885Y0196396D02*
X0074133Y0196396D01*
X0073866Y0197394D02*
X0030586Y0197394D01*
X0031286Y0198393D02*
X0057831Y0198393D01*
X0058115Y0198393D02*
X0073606Y0198393D01*
X0073606Y0199391D02*
X0063526Y0199391D01*
X0065200Y0200051D02*
X0065200Y0200051D01*
X0065623Y0200390D02*
X0073606Y0200390D01*
X0073685Y0201388D02*
X0066883Y0201388D01*
X0068212Y0202387D02*
X0073953Y0202387D01*
X0074220Y0203385D02*
X0069542Y0203385D01*
X0070871Y0204384D02*
X0074689Y0204384D01*
X0075266Y0205382D02*
X0072379Y0205382D01*
X0074001Y0206381D02*
X0075962Y0206381D01*
X0075622Y0207379D02*
X0076960Y0207379D01*
X0077244Y0208378D02*
X0078214Y0208378D01*
X0078865Y0209376D02*
X0079943Y0209376D01*
X0080487Y0210375D02*
X0116126Y0210375D01*
X0116126Y0209780D02*
X0116126Y0212511D01*
X0116833Y0215150D01*
X0118199Y0217515D01*
X0120130Y0219447D01*
X0122496Y0220813D01*
X0125134Y0221520D01*
X0127866Y0221520D01*
X0130504Y0220813D01*
X0132870Y0219447D01*
X0134801Y0217515D01*
X0136167Y0215150D01*
X0136874Y0212511D01*
X0136874Y0209780D01*
X0136167Y0207141D01*
X0134801Y0204776D01*
X0132870Y0202844D01*
X0130504Y0201479D01*
X0127866Y0200772D01*
X0125134Y0200772D01*
X0122496Y0201479D01*
X0120130Y0202844D01*
X0118199Y0204776D01*
X0116833Y0207141D01*
X0116126Y0209780D01*
X0116234Y0209376D02*
X0088017Y0209376D01*
X0089747Y0208378D02*
X0116502Y0208378D01*
X0116769Y0207379D02*
X0091000Y0207379D01*
X0091999Y0206381D02*
X0117272Y0206381D01*
X0117849Y0205382D02*
X0092695Y0205382D01*
X0093271Y0204384D02*
X0118591Y0204384D01*
X0119589Y0203385D02*
X0093740Y0203385D01*
X0094008Y0202387D02*
X0120923Y0202387D01*
X0122833Y0201388D02*
X0094275Y0201388D01*
X0094354Y0200390D02*
X0158252Y0200390D01*
X0158252Y0199391D02*
X0094354Y0199391D01*
X0094354Y0198393D02*
X0158252Y0198393D01*
X0158511Y0197394D02*
X0094095Y0197394D01*
X0093827Y0196396D02*
X0158779Y0196396D01*
X0159148Y0195397D02*
X0093459Y0195397D01*
X0092882Y0194399D02*
X0159724Y0194399D01*
X0160301Y0193400D02*
X0092306Y0193400D01*
X0091325Y0192402D02*
X0161282Y0192402D01*
X0162297Y0191403D02*
X0090309Y0191403D01*
X0088579Y0190405D02*
X0164027Y0190405D01*
X0173225Y0190405D02*
X0197608Y0190405D01*
X0196642Y0191403D02*
X0174954Y0191403D01*
X0175970Y0192402D02*
X0195676Y0192402D01*
X0194710Y0193400D02*
X0176951Y0193400D01*
X0177528Y0194399D02*
X0193744Y0194399D01*
X0192778Y0195397D02*
X0178104Y0195397D01*
X0178473Y0196396D02*
X0191812Y0196396D01*
X0190783Y0197394D02*
X0178741Y0197394D01*
X0179000Y0198393D02*
X0189546Y0198393D01*
X0188308Y0199391D02*
X0179000Y0199391D01*
X0179000Y0200390D02*
X0187071Y0200390D01*
X0185833Y0201388D02*
X0178921Y0201388D01*
X0178654Y0202387D02*
X0184596Y0202387D01*
X0183358Y0203385D02*
X0178386Y0203385D01*
X0177917Y0204384D02*
X0182121Y0204384D01*
X0180577Y0205382D02*
X0177340Y0205382D01*
X0176644Y0206381D02*
X0178969Y0206381D01*
X0177362Y0207379D02*
X0175646Y0207379D01*
X0175754Y0208378D02*
X0174392Y0208378D01*
X0174147Y0209376D02*
X0172663Y0209376D01*
X0172539Y0210375D02*
X0136874Y0210375D01*
X0136874Y0211373D02*
X0170596Y0211373D01*
X0168434Y0212372D02*
X0136874Y0212372D01*
X0136644Y0213370D02*
X0166273Y0213370D01*
X0164111Y0214369D02*
X0136376Y0214369D01*
X0136041Y0215368D02*
X0161950Y0215368D01*
X0159154Y0216366D02*
X0135465Y0216366D01*
X0134888Y0217365D02*
X0156033Y0217365D01*
X0152913Y0218363D02*
X0133954Y0218363D01*
X0132955Y0219362D02*
X0149645Y0219362D01*
X0144356Y0220360D02*
X0131288Y0220360D01*
X0128467Y0221359D02*
X0139067Y0221359D01*
X0124533Y0221359D02*
X0114031Y0221359D01*
X0108626Y0220360D02*
X0121712Y0220360D01*
X0120045Y0219362D02*
X0103274Y0219362D01*
X0100111Y0218363D02*
X0119046Y0218363D01*
X0118112Y0217365D02*
X0096948Y0217365D01*
X0093784Y0216366D02*
X0117535Y0216366D01*
X0116959Y0215368D02*
X0091085Y0215368D01*
X0088902Y0214369D02*
X0116624Y0214369D01*
X0116356Y0213370D02*
X0086718Y0213370D01*
X0084534Y0212372D02*
X0116126Y0212372D01*
X0116126Y0211373D02*
X0082350Y0211373D01*
X0054211Y0199217D02*
X0054211Y0199217D01*
X0053910Y0199391D02*
X0031998Y0199391D01*
X0032802Y0200390D02*
X0052180Y0200390D01*
X0050451Y0201388D02*
X0033606Y0201388D01*
X0034410Y0202387D02*
X0048722Y0202387D01*
X0046992Y0203385D02*
X0035214Y0203385D01*
X0036306Y0204384D02*
X0045263Y0204384D01*
X0044715Y0204700D02*
X0044715Y0204700D01*
X0043363Y0205382D02*
X0038041Y0205382D01*
X0130167Y0201388D02*
X0158331Y0201388D01*
X0158598Y0202387D02*
X0132077Y0202387D01*
X0133411Y0203385D02*
X0158866Y0203385D01*
X0159335Y0204384D02*
X0134409Y0204384D01*
X0135151Y0205382D02*
X0159911Y0205382D01*
X0160607Y0206381D02*
X0135728Y0206381D01*
X0136231Y0207379D02*
X0161606Y0207379D01*
X0162859Y0208378D02*
X0136498Y0208378D01*
X0136766Y0209376D02*
X0164589Y0209376D01*
X0192654Y0076574D02*
X0060345Y0076574D01*
X0059184Y0075576D02*
X0193816Y0075576D01*
X0195546Y0074577D02*
X0057454Y0074577D01*
X0049609Y0069585D02*
X0203392Y0069585D01*
X0204054Y0070583D02*
X0048944Y0070583D01*
X0048280Y0071582D02*
X0204715Y0071582D01*
X0205377Y0072580D02*
X0047615Y0072580D01*
X0050290Y0068586D02*
X0202684Y0068586D01*
X0201829Y0067588D02*
X0051149Y0067588D01*
X0052008Y0066589D02*
X0200974Y0066589D01*
X0200119Y0065591D02*
X0052866Y0065591D01*
X0053725Y0064592D02*
X0199263Y0064592D01*
X0161708Y0045621D02*
X0136243Y0045621D01*
X0136511Y0044622D02*
X0162909Y0044622D01*
X0164639Y0043624D02*
X0136778Y0043624D01*
X0135754Y0046619D02*
X0160710Y0046619D01*
X0160044Y0047618D02*
X0135178Y0047618D01*
X0134455Y0048616D02*
X0159468Y0048616D01*
X0159021Y0049615D02*
X0133456Y0049615D01*
X0132156Y0050613D02*
X0158753Y0050613D01*
X0120090Y0033638D02*
X0104025Y0033638D01*
X0108016Y0032640D02*
X0121791Y0032640D01*
D12*
X0126500Y0125500D02*
X0081500Y0152500D01*
M02*
