G75*
%MOIN*%
%OFA0B0*%
%FSLAX25Y25*%
%IPPOS*%
%LPD*%
%AMOC8*
5,1,8,0,0,1.08239X$1,22.5*
%
%ADD10R,0.12992X0.08268*%
%ADD11C,0.20000*%
%ADD12R,0.09843X0.01969*%
%ADD13R,0.09843X0.07874*%
%ADD14R,0.05000X0.05787*%
%ADD15R,0.07087X0.12598*%
%ADD16R,0.12598X0.07087*%
%ADD17C,0.02000*%
%ADD18C,0.05000*%
%ADD19C,0.03378*%
%ADD20C,0.03200*%
%ADD21C,0.01000*%
D10*
G36*
X0098077Y0068339D02*
X0091581Y0079589D01*
X0098741Y0083723D01*
X0105237Y0072473D01*
X0098077Y0068339D01*
G37*
G36*
X0169056Y0080180D02*
X0162560Y0068930D01*
X0155400Y0073064D01*
X0161896Y0084314D01*
X0169056Y0080180D01*
G37*
G36*
X0187600Y0129936D02*
X0181104Y0118686D01*
X0173944Y0122820D01*
X0180440Y0134070D01*
X0187600Y0129936D01*
G37*
X0100319Y0172091D03*
X0152681Y0180909D03*
G36*
X0064259Y0109277D02*
X0057763Y0120527D01*
X0064923Y0124661D01*
X0071419Y0113411D01*
X0064259Y0109277D01*
G37*
D11*
X0081500Y0096500D03*
X0171500Y0101500D03*
X0126500Y0176500D03*
D12*
G36*
X0056116Y0173328D02*
X0047594Y0178248D01*
X0048578Y0179952D01*
X0057100Y0175032D01*
X0056116Y0173328D01*
G37*
G36*
X0054541Y0170601D02*
X0046019Y0175521D01*
X0047003Y0177225D01*
X0055525Y0172305D01*
X0054541Y0170601D01*
G37*
G36*
X0052966Y0167873D02*
X0044444Y0172793D01*
X0045428Y0174497D01*
X0053950Y0169577D01*
X0052966Y0167873D01*
G37*
G36*
X0051391Y0165145D02*
X0042869Y0170065D01*
X0043853Y0171769D01*
X0052375Y0166849D01*
X0051391Y0165145D01*
G37*
G36*
X0049816Y0162418D02*
X0041294Y0167338D01*
X0042278Y0169042D01*
X0050800Y0164122D01*
X0049816Y0162418D01*
G37*
D13*
G36*
X0042632Y0149972D02*
X0034109Y0154893D01*
X0038046Y0161712D01*
X0046569Y0156791D01*
X0042632Y0149972D01*
G37*
G36*
X0023879Y0160799D02*
X0015356Y0165720D01*
X0019293Y0172539D01*
X0027816Y0167618D01*
X0023879Y0160799D01*
G37*
G36*
X0060348Y0180658D02*
X0051825Y0185579D01*
X0055762Y0192398D01*
X0064285Y0187477D01*
X0060348Y0180658D01*
G37*
G36*
X0041596Y0191485D02*
X0033073Y0196406D01*
X0037010Y0203225D01*
X0045533Y0198304D01*
X0041596Y0191485D01*
G37*
D14*
G36*
X0080275Y0165730D02*
X0077775Y0161401D01*
X0072765Y0164294D01*
X0075265Y0168623D01*
X0080275Y0165730D01*
G37*
G36*
X0064300Y0149633D02*
X0066800Y0153962D01*
X0071810Y0151069D01*
X0069310Y0146740D01*
X0064300Y0149633D01*
G37*
D15*
G36*
X0096872Y0134786D02*
X0090736Y0138329D01*
X0097034Y0149238D01*
X0103170Y0145695D01*
X0096872Y0134786D01*
G37*
G36*
X0115966Y0123762D02*
X0109830Y0127305D01*
X0116128Y0138214D01*
X0122264Y0134671D01*
X0115966Y0123762D01*
G37*
G36*
X0130736Y0134671D02*
X0136872Y0138214D01*
X0143170Y0127305D01*
X0137034Y0123762D01*
X0130736Y0134671D01*
G37*
G36*
X0149830Y0145695D02*
X0155966Y0149238D01*
X0162264Y0138329D01*
X0156128Y0134786D01*
X0149830Y0145695D01*
G37*
D16*
X0126500Y0112524D03*
X0126500Y0090476D03*
D17*
X0054256Y0160894D02*
X0046048Y0165730D01*
X0052347Y0176640D02*
X0060469Y0171894D01*
D18*
X0054256Y0160894D02*
X0056650Y0159106D01*
X0086500Y0146500D02*
X0092465Y0146500D01*
X0096953Y0142012D01*
X0086500Y0146500D02*
X0064591Y0124591D01*
X0064591Y0116969D01*
X0116047Y0130988D02*
X0126500Y0120535D01*
X0126500Y0125500D01*
X0126500Y0120535D02*
X0136953Y0130988D01*
X0126500Y0120535D02*
X0126500Y0112524D01*
X0126500Y0090476D02*
X0126500Y0081500D01*
X0131500Y0076500D01*
X0162106Y0076500D01*
X0162228Y0076622D01*
X0103500Y0066500D02*
X0098409Y0076031D01*
X0180772Y0126378D02*
X0186500Y0136500D01*
X0161500Y0147465D02*
X0156047Y0142012D01*
X0161500Y0147465D02*
X0161500Y0176500D01*
X0157091Y0180909D01*
X0152681Y0180909D01*
X0100319Y0172091D02*
X0089100Y0172100D01*
D19*
X0089100Y0172100D03*
X0056650Y0159106D03*
X0081500Y0152500D03*
X0126500Y0125500D03*
X0186500Y0136500D03*
X0103500Y0066500D03*
D20*
X0081500Y0152500D02*
X0068055Y0150351D01*
X0067268Y0150268D01*
X0076520Y0165012D02*
X0060469Y0171894D01*
D21*
X0076225Y0045043D02*
X0086607Y0039487D01*
X0097592Y0035248D01*
X0109014Y0032390D01*
X0120701Y0030956D01*
X0132475Y0030968D01*
X0144159Y0032425D01*
X0155576Y0035305D01*
X0166553Y0039566D01*
X0176924Y0045141D01*
X0186531Y0051948D01*
X0195230Y0059883D01*
X0202890Y0068826D01*
X0209393Y0078642D01*
X0214642Y0089182D01*
X0218557Y0100286D01*
X0221079Y0111787D01*
X0222170Y0123511D01*
X0221814Y0135280D01*
X0220015Y0146917D01*
X0216801Y0158244D01*
X0212221Y0169091D01*
X0206344Y0179294D01*
X0199259Y0188698D01*
X0191072Y0197161D01*
X0181909Y0204555D01*
X0171907Y0210768D01*
X0161218Y0215706D01*
X0150003Y0219294D01*
X0138433Y0221478D01*
X0126682Y0222225D01*
X0114928Y0221524D01*
X0103350Y0219385D01*
X0092121Y0215841D01*
X0081413Y0210945D01*
X0071387Y0204771D01*
X0066677Y0201234D01*
X0065200Y0200051D01*
X0065200Y0200051D01*
X0061677Y0198663D01*
X0061677Y0198663D01*
X0057902Y0198377D01*
X0057902Y0198377D01*
X0054211Y0199217D01*
X0054211Y0199217D01*
X0052763Y0200054D01*
X0044715Y0204700D01*
X0044715Y0204700D01*
X0044250Y0204968D01*
X0043123Y0205494D01*
X0040682Y0205926D01*
X0038241Y0205498D01*
X0038157Y0205449D01*
X0047214Y0200220D01*
X0047819Y0199431D01*
X0048077Y0198470D01*
X0047947Y0197484D01*
X0043513Y0189804D01*
X0042724Y0189198D01*
X0041763Y0188941D01*
X0040777Y0189071D01*
X0031392Y0194489D01*
X0030786Y0195278D01*
X0030529Y0196239D01*
X0030659Y0197225D01*
X0031550Y0198769D01*
X0025870Y0190673D01*
X0020610Y0181562D01*
X0016438Y0172595D01*
X0017376Y0174220D01*
X0018165Y0174825D01*
X0019126Y0175083D01*
X0020112Y0174953D01*
X0029497Y0169534D01*
X0030103Y0168745D01*
X0030360Y0167784D01*
X0030230Y0166798D01*
X0025796Y0159118D01*
X0025007Y0158513D01*
X0024046Y0158255D01*
X0023060Y0158385D01*
X0013956Y0163641D01*
X0013957Y0163436D01*
X0014806Y0161107D01*
X0016400Y0159210D01*
X0017419Y0158496D01*
X0017499Y0158450D01*
X0017884Y0158228D01*
X0017884Y0158228D01*
X0025540Y0153808D01*
X0025741Y0153692D01*
X0027380Y0152745D01*
X0027380Y0152745D01*
X0029954Y0149969D01*
X0029954Y0149969D01*
X0031594Y0146556D01*
X0031594Y0146556D01*
X0032153Y0142812D01*
X0032153Y0142812D01*
X0031867Y0140941D01*
X0031867Y0140941D01*
X0031158Y0135094D01*
X0030825Y0123324D01*
X0031939Y0111602D01*
X0034484Y0100106D01*
X0038421Y0089009D01*
X0043690Y0078480D01*
X0050213Y0068677D01*
X0050213Y0068677D01*
X0057890Y0059749D01*
X0066604Y0051831D01*
X0076225Y0045043D01*
X0077011Y0044622D02*
X0078309Y0044622D01*
X0077830Y0044899D02*
X0080196Y0043533D01*
X0082834Y0042826D01*
X0085566Y0042826D01*
X0088204Y0043533D01*
X0090570Y0044899D01*
X0092501Y0046830D01*
X0093867Y0049196D01*
X0094574Y0051834D01*
X0094574Y0054566D01*
X0093867Y0057204D01*
X0092501Y0059570D01*
X0090570Y0061501D01*
X0088204Y0062867D01*
X0085566Y0063574D01*
X0082834Y0063574D01*
X0080196Y0062867D01*
X0077830Y0061501D01*
X0075899Y0059570D01*
X0074533Y0057204D01*
X0073826Y0054566D01*
X0073826Y0051834D01*
X0074533Y0049196D01*
X0075899Y0046830D01*
X0077830Y0044899D01*
X0077108Y0045621D02*
X0075406Y0045621D01*
X0076110Y0046619D02*
X0073991Y0046619D01*
X0072576Y0047618D02*
X0075444Y0047618D01*
X0074868Y0048616D02*
X0071160Y0048616D01*
X0069745Y0049615D02*
X0074421Y0049615D01*
X0074153Y0050613D02*
X0068330Y0050613D01*
X0066915Y0051612D02*
X0073886Y0051612D01*
X0073826Y0052610D02*
X0065746Y0052610D01*
X0064647Y0053609D02*
X0073826Y0053609D01*
X0073837Y0054607D02*
X0063548Y0054607D01*
X0062449Y0055606D02*
X0074105Y0055606D01*
X0074372Y0056604D02*
X0061350Y0056604D01*
X0060251Y0057603D02*
X0074763Y0057603D01*
X0075340Y0058601D02*
X0059152Y0058601D01*
X0058053Y0059600D02*
X0075929Y0059600D01*
X0076927Y0060598D02*
X0057159Y0060598D01*
X0056300Y0061597D02*
X0077996Y0061597D01*
X0079725Y0062595D02*
X0055442Y0062595D01*
X0054583Y0063594D02*
X0099384Y0063594D01*
X0099558Y0063267D02*
X0101095Y0062005D01*
X0102999Y0061427D01*
X0104978Y0061621D01*
X0106733Y0062558D01*
X0107995Y0064095D01*
X0108573Y0065999D01*
X0108379Y0067978D01*
X0106968Y0070621D01*
X0107523Y0071345D01*
X0107781Y0072306D01*
X0107651Y0073292D01*
X0100658Y0085405D01*
X0099869Y0086010D01*
X0098908Y0086267D01*
X0097922Y0086138D01*
X0089901Y0081506D01*
X0089295Y0080717D01*
X0089038Y0079757D01*
X0089167Y0078771D01*
X0096161Y0066658D01*
X0096950Y0066052D01*
X0097911Y0065795D01*
X0098188Y0065832D01*
X0099558Y0063267D01*
X0100376Y0062595D02*
X0088675Y0062595D01*
X0090404Y0061597D02*
X0102439Y0061597D01*
X0104730Y0061597D02*
X0162596Y0061597D01*
X0162430Y0061501D02*
X0160499Y0059570D01*
X0159133Y0057204D01*
X0158426Y0054566D01*
X0158426Y0051834D01*
X0159133Y0049196D01*
X0160499Y0046830D01*
X0162430Y0044899D01*
X0164796Y0043533D01*
X0167434Y0042826D01*
X0170166Y0042826D01*
X0172804Y0043533D01*
X0175170Y0044899D01*
X0177101Y0046830D01*
X0178467Y0049196D01*
X0179174Y0051834D01*
X0179174Y0054566D01*
X0178467Y0057204D01*
X0177101Y0059570D01*
X0175170Y0061501D01*
X0172804Y0062867D01*
X0170166Y0063574D01*
X0167434Y0063574D01*
X0164796Y0062867D01*
X0162430Y0061501D01*
X0161527Y0060598D02*
X0091473Y0060598D01*
X0092471Y0059600D02*
X0160529Y0059600D01*
X0159940Y0058601D02*
X0093060Y0058601D01*
X0093637Y0057603D02*
X0159363Y0057603D01*
X0158972Y0056604D02*
X0094028Y0056604D01*
X0094295Y0055606D02*
X0158705Y0055606D01*
X0158437Y0054607D02*
X0094563Y0054607D01*
X0094574Y0053609D02*
X0158426Y0053609D01*
X0158426Y0052610D02*
X0094574Y0052610D01*
X0094514Y0051612D02*
X0122662Y0051612D01*
X0122496Y0051567D02*
X0120130Y0050201D01*
X0118199Y0048270D01*
X0116833Y0045904D01*
X0116126Y0043266D01*
X0116126Y0040534D01*
X0116833Y0037896D01*
X0118199Y0035530D01*
X0120130Y0033599D01*
X0122496Y0032233D01*
X0125134Y0031526D01*
X0127866Y0031526D01*
X0130504Y0032233D01*
X0132870Y0033599D01*
X0134801Y0035530D01*
X0136167Y0037896D01*
X0136874Y0040534D01*
X0136874Y0043266D01*
X0136167Y0045904D01*
X0134801Y0048270D01*
X0132870Y0050201D01*
X0130504Y0051567D01*
X0127866Y0052274D01*
X0125134Y0052274D01*
X0122496Y0051567D01*
X0120844Y0050613D02*
X0094247Y0050613D01*
X0093979Y0049615D02*
X0119544Y0049615D01*
X0118545Y0048616D02*
X0093532Y0048616D01*
X0092956Y0047618D02*
X0117822Y0047618D01*
X0117246Y0046619D02*
X0092290Y0046619D01*
X0091292Y0045621D02*
X0116757Y0045621D01*
X0116489Y0044622D02*
X0090091Y0044622D01*
X0088361Y0043624D02*
X0116222Y0043624D01*
X0116126Y0042625D02*
X0080743Y0042625D01*
X0080039Y0043624D02*
X0078877Y0043624D01*
X0082609Y0041627D02*
X0116126Y0041627D01*
X0116126Y0040628D02*
X0084475Y0040628D01*
X0086341Y0039630D02*
X0116368Y0039630D01*
X0116636Y0038631D02*
X0088826Y0038631D01*
X0091413Y0037632D02*
X0116985Y0037632D01*
X0117561Y0036634D02*
X0094001Y0036634D01*
X0096588Y0035635D02*
X0118138Y0035635D01*
X0119092Y0034637D02*
X0100035Y0034637D01*
X0104025Y0033638D02*
X0120090Y0033638D01*
X0121791Y0032640D02*
X0108016Y0032640D01*
X0115116Y0031641D02*
X0124703Y0031641D01*
X0128297Y0031641D02*
X0137879Y0031641D01*
X0133908Y0034637D02*
X0152928Y0034637D01*
X0156427Y0035635D02*
X0134862Y0035635D01*
X0135439Y0036634D02*
X0159000Y0036634D01*
X0161573Y0037632D02*
X0136015Y0037632D01*
X0136364Y0038631D02*
X0164145Y0038631D01*
X0166672Y0039630D02*
X0136632Y0039630D01*
X0136874Y0040628D02*
X0168529Y0040628D01*
X0170386Y0041627D02*
X0136874Y0041627D01*
X0136874Y0042625D02*
X0172243Y0042625D01*
X0172961Y0043624D02*
X0174101Y0043624D01*
X0174691Y0044622D02*
X0175958Y0044622D01*
X0175892Y0045621D02*
X0177600Y0045621D01*
X0176890Y0046619D02*
X0179009Y0046619D01*
X0180419Y0047618D02*
X0177556Y0047618D01*
X0178132Y0048616D02*
X0181828Y0048616D01*
X0183237Y0049615D02*
X0178579Y0049615D01*
X0178847Y0050613D02*
X0184647Y0050613D01*
X0186056Y0051612D02*
X0179114Y0051612D01*
X0179174Y0052610D02*
X0187257Y0052610D01*
X0188352Y0053609D02*
X0179174Y0053609D01*
X0179163Y0054607D02*
X0189446Y0054607D01*
X0190541Y0055606D02*
X0178895Y0055606D01*
X0178628Y0056604D02*
X0191636Y0056604D01*
X0192730Y0057603D02*
X0178237Y0057603D01*
X0177660Y0058601D02*
X0193825Y0058601D01*
X0194920Y0059600D02*
X0177071Y0059600D01*
X0176073Y0060598D02*
X0195843Y0060598D01*
X0196698Y0061597D02*
X0175004Y0061597D01*
X0173275Y0062595D02*
X0197553Y0062595D01*
X0198408Y0063594D02*
X0107583Y0063594D01*
X0108146Y0064592D02*
X0199263Y0064592D01*
X0200119Y0065591D02*
X0108449Y0065591D01*
X0108515Y0066589D02*
X0161613Y0066589D01*
X0161741Y0066515D02*
X0162727Y0066386D01*
X0163688Y0066643D01*
X0164477Y0067248D01*
X0171470Y0079361D01*
X0171600Y0080347D01*
X0171342Y0081308D01*
X0170737Y0082097D01*
X0162715Y0086728D01*
X0161729Y0086858D01*
X0160769Y0086601D01*
X0159980Y0085995D01*
X0157384Y0081500D01*
X0133571Y0081500D01*
X0131500Y0083571D01*
X0131500Y0084433D01*
X0133296Y0084433D01*
X0134215Y0084814D01*
X0134919Y0085517D01*
X0135299Y0086436D01*
X0135299Y0094517D01*
X0134919Y0095436D01*
X0134215Y0096139D01*
X0133296Y0096520D01*
X0119703Y0096520D01*
X0118785Y0096139D01*
X0118081Y0095436D01*
X0117701Y0094517D01*
X0117701Y0086436D01*
X0118081Y0085517D01*
X0118785Y0084814D01*
X0119703Y0084433D01*
X0121500Y0084433D01*
X0121500Y0080505D01*
X0122261Y0078668D01*
X0127261Y0073668D01*
X0128668Y0072261D01*
X0130505Y0071500D01*
X0153448Y0071500D01*
X0153719Y0071147D01*
X0161741Y0066515D01*
X0163487Y0066589D02*
X0200974Y0066589D01*
X0201829Y0067588D02*
X0164672Y0067588D01*
X0165249Y0068586D02*
X0202684Y0068586D01*
X0203392Y0069585D02*
X0165825Y0069585D01*
X0166402Y0070583D02*
X0204054Y0070583D01*
X0204715Y0071582D02*
X0166978Y0071582D01*
X0167555Y0072580D02*
X0205377Y0072580D01*
X0206038Y0073579D02*
X0168131Y0073579D01*
X0168708Y0074577D02*
X0195546Y0074577D01*
X0195796Y0074433D02*
X0198434Y0073726D01*
X0201166Y0073726D01*
X0203804Y0074433D01*
X0206170Y0075799D01*
X0208101Y0077730D01*
X0209467Y0080096D01*
X0210174Y0082734D01*
X0210174Y0085466D01*
X0209467Y0088104D01*
X0208101Y0090470D01*
X0206170Y0092401D01*
X0203804Y0093767D01*
X0201166Y0094474D01*
X0198434Y0094474D01*
X0195796Y0093767D01*
X0193430Y0092401D01*
X0191499Y0090470D01*
X0190133Y0088104D01*
X0189426Y0085466D01*
X0189426Y0082734D01*
X0190133Y0080096D01*
X0191499Y0077730D01*
X0193430Y0075799D01*
X0195796Y0074433D01*
X0193816Y0075576D02*
X0169284Y0075576D01*
X0169861Y0076574D02*
X0192654Y0076574D01*
X0191656Y0077573D02*
X0170437Y0077573D01*
X0171014Y0078571D02*
X0191013Y0078571D01*
X0190437Y0079570D02*
X0171497Y0079570D01*
X0171540Y0080568D02*
X0190006Y0080568D01*
X0189739Y0081567D02*
X0171144Y0081567D01*
X0169925Y0082566D02*
X0189471Y0082566D01*
X0189426Y0083564D02*
X0168196Y0083564D01*
X0166466Y0084563D02*
X0189426Y0084563D01*
X0189452Y0085561D02*
X0164737Y0085561D01*
X0163008Y0086560D02*
X0189719Y0086560D01*
X0189987Y0087558D02*
X0135299Y0087558D01*
X0135299Y0086560D02*
X0160715Y0086560D01*
X0159729Y0085561D02*
X0134937Y0085561D01*
X0133609Y0084563D02*
X0159153Y0084563D01*
X0158576Y0083564D02*
X0131507Y0083564D01*
X0132506Y0082566D02*
X0158000Y0082566D01*
X0157423Y0081567D02*
X0133504Y0081567D01*
X0124354Y0076574D02*
X0105756Y0076574D01*
X0106332Y0075576D02*
X0125353Y0075576D01*
X0126352Y0074577D02*
X0106909Y0074577D01*
X0107485Y0073579D02*
X0127350Y0073579D01*
X0128349Y0072580D02*
X0107745Y0072580D01*
X0107587Y0071582D02*
X0130308Y0071582D01*
X0123356Y0077573D02*
X0105179Y0077573D01*
X0104603Y0078571D02*
X0122357Y0078571D01*
X0121887Y0079570D02*
X0104026Y0079570D01*
X0103450Y0080568D02*
X0121500Y0080568D01*
X0121500Y0081567D02*
X0102873Y0081567D01*
X0102297Y0082566D02*
X0121500Y0082566D01*
X0121500Y0083564D02*
X0101720Y0083564D01*
X0101144Y0084563D02*
X0119391Y0084563D01*
X0118063Y0085561D02*
X0100454Y0085561D01*
X0096923Y0085561D02*
X0085052Y0085561D01*
X0085507Y0085701D02*
X0086691Y0086218D01*
X0086817Y0086291D01*
X0081317Y0095817D01*
X0082183Y0096317D01*
X0081683Y0097183D01*
X0080817Y0096683D01*
X0081317Y0095817D01*
X0071791Y0090317D01*
X0071864Y0090191D01*
X0072631Y0089151D01*
X0073509Y0088205D01*
X0074488Y0087362D01*
X0075555Y0086634D01*
X0076697Y0086031D01*
X0077900Y0085559D01*
X0079147Y0085225D01*
X0080425Y0085032D01*
X0081715Y0084984D01*
X0083003Y0085080D01*
X0084273Y0085321D01*
X0085507Y0085701D01*
X0086662Y0086560D02*
X0117701Y0086560D01*
X0117701Y0087558D02*
X0088750Y0087558D01*
X0088849Y0087631D02*
X0089795Y0088509D01*
X0090638Y0089488D01*
X0091366Y0090555D01*
X0091969Y0091697D01*
X0092441Y0092900D01*
X0092775Y0094147D01*
X0092968Y0095425D01*
X0093016Y0096715D01*
X0092920Y0098003D01*
X0092679Y0099273D01*
X0092299Y0100507D01*
X0091782Y0101691D01*
X0091709Y0101817D01*
X0082183Y0096317D01*
X0087683Y0086791D01*
X0087809Y0086864D01*
X0088849Y0087631D01*
X0089836Y0088557D02*
X0117701Y0088557D01*
X0117701Y0089555D02*
X0090684Y0089555D01*
X0091364Y0090554D02*
X0117701Y0090554D01*
X0117701Y0091552D02*
X0091892Y0091552D01*
X0092304Y0092551D02*
X0117701Y0092551D01*
X0117701Y0093549D02*
X0092615Y0093549D01*
X0092836Y0094548D02*
X0117713Y0094548D01*
X0118192Y0095546D02*
X0092972Y0095546D01*
X0093010Y0096545D02*
X0161112Y0096545D01*
X0161031Y0096697D02*
X0161634Y0095555D01*
X0162362Y0094488D01*
X0163205Y0093509D01*
X0164151Y0092631D01*
X0165191Y0091864D01*
X0165317Y0091791D01*
X0170817Y0101317D01*
X0161291Y0106817D01*
X0161218Y0106691D01*
X0160701Y0105507D01*
X0160321Y0104273D01*
X0160080Y0103003D01*
X0159984Y0101715D01*
X0160032Y0100425D01*
X0160225Y0099147D01*
X0160559Y0097900D01*
X0161031Y0096697D01*
X0160699Y0097543D02*
X0092954Y0097543D01*
X0092818Y0098542D02*
X0160387Y0098542D01*
X0160165Y0099540D02*
X0092597Y0099540D01*
X0092285Y0100539D02*
X0160028Y0100539D01*
X0159991Y0101537D02*
X0091849Y0101537D01*
X0091225Y0101537D02*
X0089225Y0101537D01*
X0089495Y0100539D02*
X0087495Y0100539D01*
X0087766Y0099540D02*
X0085766Y0099540D01*
X0086036Y0098542D02*
X0084036Y0098542D01*
X0084307Y0097543D02*
X0082307Y0097543D01*
X0081683Y0097183D02*
X0091209Y0102683D01*
X0091136Y0102809D01*
X0090369Y0103849D01*
X0089491Y0104795D01*
X0088512Y0105638D01*
X0087445Y0106366D01*
X0086303Y0106969D01*
X0085100Y0107441D01*
X0083853Y0107775D01*
X0082575Y0107968D01*
X0081285Y0108016D01*
X0079997Y0107920D01*
X0078727Y0107679D01*
X0077493Y0107299D01*
X0076309Y0106782D01*
X0076183Y0106709D01*
X0081683Y0097183D01*
X0081475Y0097543D02*
X0080320Y0097543D01*
X0080817Y0096683D02*
X0075317Y0106209D01*
X0075191Y0106136D01*
X0074151Y0105369D01*
X0073205Y0104491D01*
X0072362Y0103512D01*
X0071634Y0102445D01*
X0071031Y0101303D01*
X0070559Y0100100D01*
X0070225Y0098853D01*
X0070032Y0097575D01*
X0069984Y0096285D01*
X0070080Y0094997D01*
X0070321Y0093727D01*
X0070701Y0092493D01*
X0071218Y0091309D01*
X0071291Y0091183D01*
X0080817Y0096683D01*
X0080897Y0096545D02*
X0080577Y0096545D01*
X0080848Y0095546D02*
X0078848Y0095546D01*
X0079118Y0094548D02*
X0077118Y0094548D01*
X0077389Y0093549D02*
X0075389Y0093549D01*
X0075659Y0092551D02*
X0073660Y0092551D01*
X0073930Y0091552D02*
X0071930Y0091552D01*
X0071112Y0091552D02*
X0060419Y0091552D01*
X0059570Y0092401D02*
X0057204Y0093767D01*
X0054566Y0094474D01*
X0051834Y0094474D01*
X0049196Y0093767D01*
X0046830Y0092401D01*
X0044899Y0090470D01*
X0043533Y0088104D01*
X0042826Y0085466D01*
X0042826Y0082734D01*
X0043533Y0080096D01*
X0044899Y0077730D01*
X0046830Y0075799D01*
X0049196Y0074433D01*
X0051834Y0073726D01*
X0054566Y0073726D01*
X0057204Y0074433D01*
X0059570Y0075799D01*
X0061501Y0077730D01*
X0062867Y0080096D01*
X0063574Y0082734D01*
X0063574Y0085466D01*
X0062867Y0088104D01*
X0061501Y0090470D01*
X0059570Y0092401D01*
X0059311Y0092551D02*
X0070684Y0092551D01*
X0070376Y0093549D02*
X0057582Y0093549D01*
X0061417Y0090554D02*
X0072200Y0090554D01*
X0072333Y0089555D02*
X0062029Y0089555D01*
X0062606Y0088557D02*
X0073183Y0088557D01*
X0074260Y0087558D02*
X0063013Y0087558D01*
X0063281Y0086560D02*
X0075697Y0086560D01*
X0077895Y0085561D02*
X0063548Y0085561D01*
X0063574Y0084563D02*
X0095194Y0084563D01*
X0093464Y0083564D02*
X0063574Y0083564D01*
X0063529Y0082566D02*
X0091735Y0082566D01*
X0090005Y0081567D02*
X0063261Y0081567D01*
X0062994Y0080568D02*
X0089255Y0080568D01*
X0089062Y0079570D02*
X0062563Y0079570D01*
X0061987Y0078571D02*
X0089283Y0078571D01*
X0089859Y0077573D02*
X0061344Y0077573D01*
X0060345Y0076574D02*
X0090435Y0076574D01*
X0091012Y0075576D02*
X0059184Y0075576D01*
X0057454Y0074577D02*
X0091588Y0074577D01*
X0092165Y0073579D02*
X0046951Y0073579D01*
X0046287Y0074577D02*
X0048946Y0074577D01*
X0047216Y0075576D02*
X0045622Y0075576D01*
X0046054Y0076574D02*
X0044958Y0076574D01*
X0045056Y0077573D02*
X0044294Y0077573D01*
X0044413Y0078571D02*
X0043644Y0078571D01*
X0043837Y0079570D02*
X0043145Y0079570D01*
X0043406Y0080568D02*
X0042645Y0080568D01*
X0043139Y0081567D02*
X0042145Y0081567D01*
X0041645Y0082566D02*
X0042871Y0082566D01*
X0042826Y0083564D02*
X0041146Y0083564D01*
X0040646Y0084563D02*
X0042826Y0084563D01*
X0042852Y0085561D02*
X0040146Y0085561D01*
X0039647Y0086560D02*
X0043119Y0086560D01*
X0043387Y0087558D02*
X0039147Y0087558D01*
X0038647Y0088557D02*
X0043794Y0088557D01*
X0044371Y0089555D02*
X0038227Y0089555D01*
X0037873Y0090554D02*
X0044983Y0090554D01*
X0045981Y0091552D02*
X0037519Y0091552D01*
X0037164Y0092551D02*
X0047089Y0092551D01*
X0048818Y0093549D02*
X0036810Y0093549D01*
X0036456Y0094548D02*
X0070165Y0094548D01*
X0070039Y0095546D02*
X0036102Y0095546D01*
X0035747Y0096545D02*
X0069994Y0096545D01*
X0070031Y0097543D02*
X0035393Y0097543D01*
X0035039Y0098542D02*
X0070178Y0098542D01*
X0070409Y0099540D02*
X0034684Y0099540D01*
X0034388Y0100539D02*
X0070731Y0100539D01*
X0071155Y0101537D02*
X0034167Y0101537D01*
X0033946Y0102536D02*
X0071697Y0102536D01*
X0072381Y0103534D02*
X0033725Y0103534D01*
X0033504Y0104533D02*
X0073250Y0104533D01*
X0074371Y0105531D02*
X0033283Y0105531D01*
X0033062Y0106530D02*
X0076287Y0106530D01*
X0076863Y0105531D02*
X0075708Y0105531D01*
X0076285Y0104533D02*
X0077440Y0104533D01*
X0078016Y0103534D02*
X0076861Y0103534D01*
X0077438Y0102536D02*
X0078593Y0102536D01*
X0079169Y0101537D02*
X0078014Y0101537D01*
X0078591Y0100539D02*
X0079746Y0100539D01*
X0080322Y0099540D02*
X0079167Y0099540D01*
X0079744Y0098542D02*
X0080899Y0098542D01*
X0082052Y0096545D02*
X0082577Y0096545D01*
X0082628Y0095546D02*
X0081473Y0095546D01*
X0082050Y0094548D02*
X0083204Y0094548D01*
X0083781Y0093549D02*
X0082626Y0093549D01*
X0083203Y0092551D02*
X0084357Y0092551D01*
X0084934Y0091552D02*
X0083779Y0091552D01*
X0084356Y0090554D02*
X0085510Y0090554D01*
X0086087Y0089555D02*
X0084932Y0089555D01*
X0085509Y0088557D02*
X0086663Y0088557D01*
X0087240Y0087558D02*
X0086085Y0087558D01*
X0090954Y0102536D02*
X0160045Y0102536D01*
X0160181Y0103534D02*
X0090601Y0103534D01*
X0089735Y0104533D02*
X0160401Y0104533D01*
X0160712Y0105531D02*
X0088636Y0105531D01*
X0087134Y0106530D02*
X0119584Y0106530D01*
X0119703Y0106480D02*
X0133296Y0106480D01*
X0134215Y0106861D01*
X0134919Y0107564D01*
X0135299Y0108483D01*
X0135299Y0116564D01*
X0134919Y0117483D01*
X0134215Y0118186D01*
X0133296Y0118567D01*
X0131603Y0118567D01*
X0135117Y0122081D01*
X0135118Y0122081D01*
X0135907Y0121475D01*
X0136868Y0121218D01*
X0137854Y0121348D01*
X0144852Y0125388D01*
X0145458Y0126177D01*
X0145715Y0127138D01*
X0145585Y0128124D01*
X0138789Y0139896D01*
X0138000Y0140501D01*
X0137039Y0140759D01*
X0136053Y0140629D01*
X0129054Y0136588D01*
X0128449Y0135799D01*
X0128192Y0134839D01*
X0128321Y0133852D01*
X0129941Y0131047D01*
X0128838Y0129944D01*
X0127495Y0130500D01*
X0125505Y0130500D01*
X0124162Y0129944D01*
X0123059Y0131047D01*
X0124679Y0133852D01*
X0124808Y0134839D01*
X0124551Y0135799D01*
X0123946Y0136588D01*
X0116947Y0140629D01*
X0115961Y0140759D01*
X0115000Y0140501D01*
X0114211Y0139896D01*
X0107415Y0128124D01*
X0107285Y0127138D01*
X0107542Y0126177D01*
X0108148Y0125388D01*
X0115146Y0121348D01*
X0116132Y0121218D01*
X0117093Y0121475D01*
X0117882Y0122081D01*
X0117883Y0122081D01*
X0121397Y0118567D01*
X0119703Y0118567D01*
X0118785Y0118186D01*
X0118081Y0117483D01*
X0117701Y0116564D01*
X0117701Y0108483D01*
X0118081Y0107564D01*
X0118785Y0106861D01*
X0119703Y0106480D01*
X0118117Y0107528D02*
X0084774Y0107528D01*
X0078237Y0107528D02*
X0066231Y0107528D01*
X0065078Y0106862D02*
X0073099Y0111494D01*
X0073705Y0112283D01*
X0073962Y0113243D01*
X0073832Y0114229D01*
X0069591Y0121576D01*
X0069591Y0122520D01*
X0088571Y0141500D01*
X0089680Y0141500D01*
X0088321Y0139148D01*
X0088192Y0138161D01*
X0088449Y0137201D01*
X0089054Y0136412D01*
X0096053Y0132371D01*
X0097039Y0132241D01*
X0098000Y0132499D01*
X0098789Y0133104D01*
X0105585Y0144876D01*
X0105715Y0145862D01*
X0105458Y0146823D01*
X0104852Y0147612D01*
X0097854Y0151652D01*
X0096868Y0151782D01*
X0095907Y0151525D01*
X0095118Y0150919D01*
X0095068Y0150834D01*
X0093460Y0151500D01*
X0085620Y0151500D01*
X0085689Y0151667D01*
X0085689Y0153333D01*
X0085051Y0154873D01*
X0083873Y0156051D01*
X0082333Y0156689D01*
X0080667Y0156689D01*
X0079998Y0156412D01*
X0070255Y0154854D01*
X0067618Y0156376D01*
X0066632Y0156506D01*
X0065672Y0156249D01*
X0064883Y0155643D01*
X0061885Y0150452D01*
X0061756Y0149466D01*
X0045227Y0149466D01*
X0045803Y0150464D02*
X0061893Y0150464D01*
X0061756Y0149466D02*
X0062013Y0148505D01*
X0062618Y0147716D01*
X0068492Y0144325D01*
X0069478Y0144195D01*
X0070439Y0144453D01*
X0071228Y0145058D01*
X0072276Y0146873D01*
X0081234Y0148305D01*
X0060352Y0127423D01*
X0059591Y0125585D01*
X0059591Y0124470D01*
X0056082Y0122444D01*
X0055477Y0121655D01*
X0055219Y0120694D01*
X0055349Y0119708D01*
X0062342Y0107595D01*
X0063131Y0106990D01*
X0064092Y0106733D01*
X0065078Y0106862D01*
X0062430Y0107528D02*
X0032841Y0107528D01*
X0032620Y0108527D02*
X0061805Y0108527D01*
X0061228Y0109525D02*
X0032399Y0109525D01*
X0032178Y0110524D02*
X0060652Y0110524D01*
X0060075Y0111522D02*
X0031957Y0111522D01*
X0031852Y0112521D02*
X0059499Y0112521D01*
X0058922Y0113519D02*
X0031757Y0113519D01*
X0031662Y0114518D02*
X0058346Y0114518D01*
X0057769Y0115516D02*
X0031567Y0115516D01*
X0031472Y0116515D02*
X0039037Y0116515D01*
X0037850Y0116833D02*
X0040489Y0116126D01*
X0043220Y0116126D01*
X0045859Y0116833D01*
X0048224Y0118199D01*
X0050156Y0120130D01*
X0051521Y0122496D01*
X0052228Y0125134D01*
X0052228Y0127866D01*
X0051521Y0130504D01*
X0050156Y0132870D01*
X0048224Y0134801D01*
X0045859Y0136167D01*
X0043220Y0136874D01*
X0040489Y0136874D01*
X0037850Y0136167D01*
X0035485Y0134801D01*
X0033553Y0132870D01*
X0032187Y0130504D01*
X0031480Y0127866D01*
X0031480Y0125134D01*
X0032187Y0122496D01*
X0033553Y0120130D01*
X0035485Y0118199D01*
X0037850Y0116833D01*
X0036672Y0117513D02*
X0031377Y0117513D01*
X0031282Y0118512D02*
X0035171Y0118512D01*
X0034173Y0119510D02*
X0031187Y0119510D01*
X0031092Y0120509D02*
X0033334Y0120509D01*
X0032758Y0121507D02*
X0030998Y0121507D01*
X0030903Y0122506D02*
X0032185Y0122506D01*
X0031917Y0123504D02*
X0030830Y0123504D01*
X0030858Y0124503D02*
X0031649Y0124503D01*
X0031480Y0125501D02*
X0030887Y0125501D01*
X0030915Y0126500D02*
X0031480Y0126500D01*
X0031480Y0127499D02*
X0030943Y0127499D01*
X0030971Y0128497D02*
X0031649Y0128497D01*
X0031917Y0129496D02*
X0031000Y0129496D01*
X0031028Y0130494D02*
X0032185Y0130494D01*
X0032758Y0131493D02*
X0031056Y0131493D01*
X0031085Y0132491D02*
X0033334Y0132491D01*
X0034173Y0133490D02*
X0031113Y0133490D01*
X0031141Y0134488D02*
X0035171Y0134488D01*
X0036672Y0135487D02*
X0031206Y0135487D01*
X0031327Y0136485D02*
X0039037Y0136485D01*
X0044671Y0136485D02*
X0069414Y0136485D01*
X0068416Y0135487D02*
X0047037Y0135487D01*
X0048537Y0134488D02*
X0067417Y0134488D01*
X0066419Y0133490D02*
X0049536Y0133490D01*
X0050374Y0132491D02*
X0065420Y0132491D01*
X0064421Y0131493D02*
X0050951Y0131493D01*
X0051524Y0130494D02*
X0063423Y0130494D01*
X0062424Y0129496D02*
X0051792Y0129496D01*
X0052059Y0128497D02*
X0061426Y0128497D01*
X0060427Y0127499D02*
X0052228Y0127499D01*
X0052228Y0126500D02*
X0059970Y0126500D01*
X0059591Y0125501D02*
X0052228Y0125501D01*
X0052059Y0124503D02*
X0059591Y0124503D01*
X0057919Y0123504D02*
X0051792Y0123504D01*
X0051524Y0122506D02*
X0056189Y0122506D01*
X0055437Y0121507D02*
X0050951Y0121507D01*
X0050374Y0120509D02*
X0055244Y0120509D01*
X0055463Y0119510D02*
X0049536Y0119510D01*
X0048537Y0118512D02*
X0056040Y0118512D01*
X0056616Y0117513D02*
X0047037Y0117513D01*
X0044671Y0116515D02*
X0057193Y0116515D01*
X0069630Y0121507D02*
X0114869Y0121507D01*
X0113140Y0122506D02*
X0069591Y0122506D01*
X0070576Y0123504D02*
X0111410Y0123504D01*
X0109681Y0124503D02*
X0071574Y0124503D01*
X0072573Y0125501D02*
X0108061Y0125501D01*
X0107456Y0126500D02*
X0073571Y0126500D01*
X0074570Y0127499D02*
X0107333Y0127499D01*
X0107630Y0128497D02*
X0075568Y0128497D01*
X0076567Y0129496D02*
X0108207Y0129496D01*
X0108783Y0130494D02*
X0077565Y0130494D01*
X0078564Y0131493D02*
X0109360Y0131493D01*
X0109936Y0132491D02*
X0097971Y0132491D01*
X0099011Y0133490D02*
X0110513Y0133490D01*
X0111089Y0134488D02*
X0099588Y0134488D01*
X0100164Y0135487D02*
X0111666Y0135487D01*
X0112242Y0136485D02*
X0100741Y0136485D01*
X0101317Y0137484D02*
X0112819Y0137484D01*
X0113395Y0138482D02*
X0101894Y0138482D01*
X0102470Y0139481D02*
X0113972Y0139481D01*
X0114972Y0140479D02*
X0103047Y0140479D01*
X0103623Y0141478D02*
X0149377Y0141478D01*
X0148800Y0142476D02*
X0104200Y0142476D01*
X0104776Y0143475D02*
X0148224Y0143475D01*
X0147647Y0144473D02*
X0105353Y0144473D01*
X0105664Y0145472D02*
X0147336Y0145472D01*
X0147285Y0145862D02*
X0147415Y0144876D01*
X0154211Y0133104D01*
X0155000Y0132499D01*
X0155961Y0132241D01*
X0156947Y0132371D01*
X0163946Y0136412D01*
X0164551Y0137201D01*
X0164808Y0138161D01*
X0164679Y0139148D01*
X0163059Y0141953D01*
X0165739Y0144633D01*
X0166500Y0146471D01*
X0166500Y0177495D01*
X0165739Y0179332D01*
X0164332Y0180739D01*
X0161677Y0183394D01*
X0161677Y0185541D01*
X0161297Y0186459D01*
X0160593Y0187163D01*
X0159674Y0187543D01*
X0145688Y0187543D01*
X0144769Y0187163D01*
X0144066Y0186459D01*
X0143685Y0185541D01*
X0143685Y0176278D01*
X0144066Y0175359D01*
X0144769Y0174656D01*
X0145688Y0174276D01*
X0156500Y0174276D01*
X0156500Y0151684D01*
X0156132Y0151782D01*
X0155146Y0151652D01*
X0148148Y0147612D01*
X0147542Y0146823D01*
X0147285Y0145862D01*
X0147448Y0146470D02*
X0105552Y0146470D01*
X0104962Y0147469D02*
X0148038Y0147469D01*
X0149629Y0148467D02*
X0103371Y0148467D01*
X0101641Y0149466D02*
X0151359Y0149466D01*
X0153088Y0150464D02*
X0099912Y0150464D01*
X0098182Y0151463D02*
X0154818Y0151463D01*
X0156500Y0152461D02*
X0085689Y0152461D01*
X0085637Y0153460D02*
X0156500Y0153460D01*
X0156500Y0154458D02*
X0085223Y0154458D01*
X0084467Y0155457D02*
X0156500Y0155457D01*
X0156500Y0156455D02*
X0082897Y0156455D01*
X0080103Y0156455D02*
X0067017Y0156455D01*
X0066443Y0156455D02*
X0060910Y0156455D01*
X0061251Y0156912D02*
X0060061Y0155318D01*
X0058351Y0154301D01*
X0056383Y0154015D01*
X0054455Y0154505D01*
X0050467Y0157482D01*
X0049450Y0159192D01*
X0049376Y0159707D01*
X0043671Y0163068D01*
X0043656Y0163087D01*
X0039613Y0165422D01*
X0039433Y0165655D01*
X0038762Y0164984D01*
X0037192Y0164334D01*
X0035493Y0164334D01*
X0033923Y0164984D01*
X0032721Y0166186D01*
X0032071Y0167756D01*
X0032071Y0169455D01*
X0032721Y0171025D01*
X0033923Y0172227D01*
X0035493Y0172877D01*
X0037192Y0172877D01*
X0038762Y0172227D01*
X0039964Y0171025D01*
X0040203Y0170449D01*
X0040361Y0170723D01*
X0040441Y0170785D01*
X0040455Y0170885D01*
X0041936Y0173451D01*
X0042016Y0173513D01*
X0042029Y0173613D01*
X0043511Y0176179D01*
X0043591Y0176240D01*
X0043604Y0176340D01*
X0045086Y0178906D01*
X0045166Y0178968D01*
X0045179Y0179068D01*
X0045334Y0179336D01*
X0044154Y0179336D01*
X0042584Y0179986D01*
X0041383Y0181188D01*
X0040732Y0182758D01*
X0040732Y0184457D01*
X0041383Y0186027D01*
X0042584Y0187229D01*
X0044154Y0187879D01*
X0045854Y0187879D01*
X0047424Y0187229D01*
X0048625Y0186027D01*
X0049276Y0184457D01*
X0049276Y0182758D01*
X0049128Y0182402D01*
X0049396Y0182367D01*
X0053461Y0180020D01*
X0053512Y0180013D01*
X0056673Y0178166D01*
X0058781Y0176948D01*
X0058802Y0176921D01*
X0060387Y0175995D01*
X0061335Y0175983D01*
X0073789Y0170643D01*
X0074136Y0170910D01*
X0075097Y0171167D01*
X0076083Y0171037D01*
X0081956Y0167646D01*
X0082562Y0166857D01*
X0082819Y0165897D01*
X0082689Y0164910D01*
X0079692Y0159719D01*
X0078903Y0159114D01*
X0077942Y0158856D01*
X0076956Y0158986D01*
X0071083Y0162377D01*
X0070506Y0163129D01*
X0058103Y0168447D01*
X0056964Y0169614D01*
X0056921Y0169721D01*
X0056458Y0168919D01*
X0056378Y0168858D01*
X0056365Y0168757D01*
X0054883Y0166191D01*
X0054803Y0166130D01*
X0054790Y0166030D01*
X0054733Y0165931D01*
X0056451Y0165495D01*
X0060438Y0162518D01*
X0061455Y0160808D01*
X0061741Y0158840D01*
X0061251Y0156912D01*
X0061389Y0157454D02*
X0156500Y0157454D01*
X0156500Y0158452D02*
X0061642Y0158452D01*
X0061652Y0159451D02*
X0076151Y0159451D01*
X0074422Y0160449D02*
X0061507Y0160449D01*
X0061074Y0161448D02*
X0072692Y0161448D01*
X0071030Y0162446D02*
X0060480Y0162446D01*
X0059196Y0163445D02*
X0069769Y0163445D01*
X0067441Y0164443D02*
X0057859Y0164443D01*
X0056522Y0165442D02*
X0065112Y0165442D01*
X0062783Y0166440D02*
X0055027Y0166440D01*
X0055604Y0167439D02*
X0060454Y0167439D01*
X0058125Y0168437D02*
X0056180Y0168437D01*
X0056757Y0169436D02*
X0057138Y0169436D01*
X0064961Y0174429D02*
X0084653Y0174429D01*
X0084864Y0174936D02*
X0084101Y0173099D01*
X0084099Y0171110D01*
X0084859Y0169271D01*
X0086264Y0167864D01*
X0088101Y0167101D01*
X0091473Y0167098D01*
X0091703Y0166541D01*
X0092407Y0165837D01*
X0093326Y0165457D01*
X0107312Y0165457D01*
X0108231Y0165837D01*
X0108934Y0166541D01*
X0109315Y0167459D01*
X0109315Y0176722D01*
X0108934Y0177641D01*
X0108231Y0178344D01*
X0107312Y0178724D01*
X0093326Y0178724D01*
X0092407Y0178344D01*
X0091703Y0177641D01*
X0091479Y0177098D01*
X0088110Y0177101D01*
X0086271Y0176341D01*
X0084864Y0174936D01*
X0085356Y0175427D02*
X0062632Y0175427D01*
X0059651Y0176426D02*
X0086476Y0176426D01*
X0084238Y0173430D02*
X0067290Y0173430D01*
X0069618Y0172432D02*
X0084100Y0172432D01*
X0084099Y0171433D02*
X0071947Y0171433D01*
X0077127Y0170434D02*
X0084378Y0170434D01*
X0084791Y0169436D02*
X0078856Y0169436D01*
X0080586Y0168437D02*
X0085691Y0168437D01*
X0087287Y0167439D02*
X0082115Y0167439D01*
X0082673Y0166440D02*
X0091804Y0166440D01*
X0082759Y0165442D02*
X0123283Y0165442D01*
X0123311Y0165432D02*
X0124571Y0165145D01*
X0125854Y0165000D01*
X0126000Y0165000D01*
X0126000Y0176000D01*
X0115000Y0176000D01*
X0115000Y0175854D01*
X0115145Y0174571D01*
X0115432Y0173311D01*
X0115859Y0172092D01*
X0116419Y0170928D01*
X0117106Y0169835D01*
X0117912Y0168825D01*
X0118825Y0167912D01*
X0119835Y0167106D01*
X0120928Y0166419D01*
X0122092Y0165859D01*
X0123311Y0165432D01*
X0120894Y0166440D02*
X0108834Y0166440D01*
X0109306Y0167439D02*
X0119418Y0167439D01*
X0118299Y0168437D02*
X0109315Y0168437D01*
X0109315Y0169436D02*
X0117424Y0169436D01*
X0116729Y0170434D02*
X0109315Y0170434D01*
X0109315Y0171433D02*
X0116176Y0171433D01*
X0115740Y0172432D02*
X0109315Y0172432D01*
X0109315Y0173430D02*
X0115405Y0173430D01*
X0115177Y0174429D02*
X0109315Y0174429D01*
X0109315Y0175427D02*
X0115048Y0175427D01*
X0115000Y0177000D02*
X0126000Y0177000D01*
X0126000Y0188000D01*
X0125854Y0188000D01*
X0124571Y0187855D01*
X0123311Y0187568D01*
X0122092Y0187141D01*
X0120928Y0186581D01*
X0119835Y0185894D01*
X0118825Y0185088D01*
X0117912Y0184175D01*
X0117106Y0183165D01*
X0116419Y0182072D01*
X0115859Y0180908D01*
X0115432Y0179689D01*
X0115145Y0178429D01*
X0115000Y0177146D01*
X0115000Y0177000D01*
X0115031Y0177424D02*
X0109024Y0177424D01*
X0109315Y0176426D02*
X0126000Y0176426D01*
X0126000Y0176000D02*
X0126000Y0177000D01*
X0127000Y0177000D01*
X0127000Y0188000D01*
X0127146Y0188000D01*
X0128429Y0187855D01*
X0129689Y0187568D01*
X0130908Y0187141D01*
X0132072Y0186581D01*
X0133165Y0185894D01*
X0134175Y0185088D01*
X0135088Y0184175D01*
X0135894Y0183165D01*
X0136581Y0182072D01*
X0137141Y0180908D01*
X0137568Y0179689D01*
X0137855Y0178429D01*
X0138000Y0177146D01*
X0138000Y0177000D01*
X0127000Y0177000D01*
X0127000Y0176000D01*
X0138000Y0176000D01*
X0138000Y0175854D01*
X0137855Y0174571D01*
X0137568Y0173311D01*
X0137141Y0172092D01*
X0136581Y0170928D01*
X0135894Y0169835D01*
X0135088Y0168825D01*
X0134175Y0167912D01*
X0133165Y0167106D01*
X0132072Y0166419D01*
X0130908Y0165859D01*
X0129689Y0165432D01*
X0128429Y0165145D01*
X0127146Y0165000D01*
X0127000Y0165000D01*
X0127000Y0176000D01*
X0126000Y0176000D01*
X0126000Y0175427D02*
X0127000Y0175427D01*
X0127000Y0174429D02*
X0126000Y0174429D01*
X0126000Y0173430D02*
X0127000Y0173430D01*
X0127000Y0172432D02*
X0126000Y0172432D01*
X0126000Y0171433D02*
X0127000Y0171433D01*
X0127000Y0170434D02*
X0126000Y0170434D01*
X0126000Y0169436D02*
X0127000Y0169436D01*
X0127000Y0168437D02*
X0126000Y0168437D01*
X0126000Y0167439D02*
X0127000Y0167439D01*
X0127000Y0166440D02*
X0126000Y0166440D01*
X0126000Y0165442D02*
X0127000Y0165442D01*
X0129717Y0165442D02*
X0156500Y0165442D01*
X0156500Y0166440D02*
X0132106Y0166440D01*
X0133582Y0167439D02*
X0156500Y0167439D01*
X0156500Y0168437D02*
X0134701Y0168437D01*
X0135576Y0169436D02*
X0156500Y0169436D01*
X0156500Y0170434D02*
X0136271Y0170434D01*
X0136824Y0171433D02*
X0156500Y0171433D01*
X0156500Y0172432D02*
X0137260Y0172432D01*
X0137595Y0173430D02*
X0156500Y0173430D01*
X0166500Y0173430D02*
X0190523Y0173430D01*
X0190061Y0172630D02*
X0189354Y0169992D01*
X0189354Y0167260D01*
X0190061Y0164622D01*
X0191427Y0162256D01*
X0193359Y0160325D01*
X0195724Y0158959D01*
X0198363Y0158252D01*
X0201094Y0158252D01*
X0203733Y0158959D01*
X0206098Y0160325D01*
X0208030Y0162256D01*
X0209395Y0164622D01*
X0210102Y0167260D01*
X0210102Y0169992D01*
X0209395Y0172630D01*
X0208030Y0174996D01*
X0206098Y0176927D01*
X0203733Y0178293D01*
X0201094Y0179000D01*
X0198363Y0179000D01*
X0195724Y0178293D01*
X0193359Y0176927D01*
X0191427Y0174996D01*
X0190061Y0172630D01*
X0190008Y0172432D02*
X0166500Y0172432D01*
X0166500Y0171433D02*
X0189741Y0171433D01*
X0189473Y0170434D02*
X0166500Y0170434D01*
X0166500Y0169436D02*
X0189354Y0169436D01*
X0189354Y0168437D02*
X0166500Y0168437D01*
X0166500Y0167439D02*
X0189354Y0167439D01*
X0189574Y0166440D02*
X0166500Y0166440D01*
X0166500Y0165442D02*
X0189842Y0165442D01*
X0190164Y0164443D02*
X0166500Y0164443D01*
X0166500Y0163445D02*
X0190741Y0163445D01*
X0191317Y0162446D02*
X0166500Y0162446D01*
X0166500Y0161448D02*
X0192235Y0161448D01*
X0193234Y0160449D02*
X0166500Y0160449D01*
X0166500Y0159451D02*
X0194872Y0159451D01*
X0197615Y0158452D02*
X0166500Y0158452D01*
X0166500Y0157454D02*
X0217026Y0157454D01*
X0217309Y0156455D02*
X0166500Y0156455D01*
X0166500Y0155457D02*
X0217592Y0155457D01*
X0217876Y0154458D02*
X0166500Y0154458D01*
X0166500Y0153460D02*
X0218159Y0153460D01*
X0218442Y0152461D02*
X0166500Y0152461D01*
X0166500Y0151463D02*
X0218725Y0151463D01*
X0219009Y0150464D02*
X0166500Y0150464D01*
X0166500Y0149466D02*
X0219292Y0149466D01*
X0219575Y0148467D02*
X0166500Y0148467D01*
X0166500Y0147469D02*
X0219859Y0147469D01*
X0220084Y0146470D02*
X0166500Y0146470D01*
X0166086Y0145472D02*
X0220239Y0145472D01*
X0220393Y0144473D02*
X0165579Y0144473D01*
X0164581Y0143475D02*
X0220547Y0143475D01*
X0220702Y0142476D02*
X0163582Y0142476D01*
X0163333Y0141478D02*
X0185739Y0141478D01*
X0186123Y0141584D02*
X0184206Y0141053D01*
X0182638Y0139828D01*
X0180782Y0136547D01*
X0180273Y0136614D01*
X0179312Y0136357D01*
X0178523Y0135752D01*
X0171530Y0123639D01*
X0171400Y0122653D01*
X0171658Y0121692D01*
X0172263Y0120903D01*
X0180284Y0116272D01*
X0181271Y0116142D01*
X0182231Y0116399D01*
X0183020Y0117005D01*
X0190014Y0129118D01*
X0190143Y0130104D01*
X0189886Y0131064D01*
X0189473Y0131602D01*
X0191341Y0134903D01*
X0191584Y0136877D01*
X0191053Y0138794D01*
X0189828Y0140362D01*
X0188097Y0141341D01*
X0186123Y0141584D01*
X0186988Y0141478D02*
X0220856Y0141478D01*
X0221010Y0140479D02*
X0189621Y0140479D01*
X0190516Y0139481D02*
X0221165Y0139481D01*
X0221319Y0138482D02*
X0191139Y0138482D01*
X0191416Y0137484D02*
X0221473Y0137484D01*
X0221628Y0136485D02*
X0213963Y0136485D01*
X0215150Y0136167D02*
X0212511Y0136874D01*
X0209780Y0136874D01*
X0207141Y0136167D01*
X0204776Y0134801D01*
X0202844Y0132870D01*
X0201479Y0130504D01*
X0200772Y0127866D01*
X0200772Y0125134D01*
X0201479Y0122496D01*
X0202844Y0120130D01*
X0204776Y0118199D01*
X0207141Y0116833D01*
X0209780Y0116126D01*
X0212511Y0116126D01*
X0215150Y0116833D01*
X0217515Y0118199D01*
X0219447Y0120130D01*
X0220813Y0122496D01*
X0221520Y0125134D01*
X0221520Y0127866D01*
X0220813Y0130504D01*
X0219447Y0132870D01*
X0217515Y0134801D01*
X0215150Y0136167D01*
X0216328Y0135487D02*
X0221782Y0135487D01*
X0221838Y0134488D02*
X0217829Y0134488D01*
X0218827Y0133490D02*
X0221868Y0133490D01*
X0221898Y0132491D02*
X0219666Y0132491D01*
X0220242Y0131493D02*
X0221929Y0131493D01*
X0221959Y0130494D02*
X0220815Y0130494D01*
X0221083Y0129496D02*
X0221989Y0129496D01*
X0222019Y0128497D02*
X0221351Y0128497D01*
X0221520Y0127499D02*
X0222050Y0127499D01*
X0222080Y0126500D02*
X0221520Y0126500D01*
X0221520Y0125501D02*
X0222110Y0125501D01*
X0222140Y0124503D02*
X0221351Y0124503D01*
X0221083Y0123504D02*
X0222170Y0123504D01*
X0222077Y0122506D02*
X0220815Y0122506D01*
X0220242Y0121507D02*
X0221984Y0121507D01*
X0221891Y0120509D02*
X0219666Y0120509D01*
X0218827Y0119510D02*
X0221798Y0119510D01*
X0221705Y0118512D02*
X0217829Y0118512D01*
X0216328Y0117513D02*
X0221612Y0117513D01*
X0221519Y0116515D02*
X0213963Y0116515D01*
X0221426Y0115516D02*
X0135299Y0115516D01*
X0135299Y0114518D02*
X0221333Y0114518D01*
X0221241Y0113519D02*
X0135299Y0113519D01*
X0135299Y0112521D02*
X0168198Y0112521D01*
X0167900Y0112441D02*
X0166697Y0111969D01*
X0165555Y0111366D01*
X0164488Y0110638D01*
X0163509Y0109795D01*
X0162631Y0108849D01*
X0161864Y0107809D01*
X0161791Y0107683D01*
X0171317Y0102183D01*
X0176817Y0111709D01*
X0176691Y0111782D01*
X0175507Y0112299D01*
X0174273Y0112679D01*
X0173003Y0112920D01*
X0171715Y0113016D01*
X0170425Y0112968D01*
X0169147Y0112775D01*
X0167900Y0112441D01*
X0165852Y0111522D02*
X0135299Y0111522D01*
X0135299Y0110524D02*
X0164356Y0110524D01*
X0163259Y0109525D02*
X0135299Y0109525D01*
X0135299Y0108527D02*
X0162393Y0108527D01*
X0162059Y0107528D02*
X0134883Y0107528D01*
X0133416Y0106530D02*
X0161148Y0106530D01*
X0161788Y0106530D02*
X0163788Y0106530D01*
X0163518Y0105531D02*
X0165518Y0105531D01*
X0165247Y0104533D02*
X0167247Y0104533D01*
X0166977Y0103534D02*
X0168976Y0103534D01*
X0168706Y0102536D02*
X0170706Y0102536D01*
X0171317Y0102183D02*
X0170817Y0101317D01*
X0171683Y0100817D01*
X0172183Y0101683D01*
X0181709Y0096183D01*
X0181782Y0096309D01*
X0182299Y0097493D01*
X0182679Y0098727D01*
X0182920Y0099997D01*
X0183016Y0101285D01*
X0182968Y0102575D01*
X0182775Y0103853D01*
X0182441Y0105100D01*
X0181969Y0106303D01*
X0181366Y0107445D01*
X0180638Y0108512D01*
X0179795Y0109491D01*
X0178849Y0110369D01*
X0177809Y0111136D01*
X0177683Y0111209D01*
X0172183Y0101683D01*
X0171317Y0102183D01*
X0171521Y0102536D02*
X0172675Y0102536D01*
X0172435Y0101537D02*
X0172099Y0101537D01*
X0171683Y0100817D02*
X0181209Y0095317D01*
X0181136Y0095191D01*
X0180369Y0094151D01*
X0179491Y0093205D01*
X0178512Y0092362D01*
X0177445Y0091634D01*
X0176303Y0091031D01*
X0175100Y0090559D01*
X0173853Y0090225D01*
X0172575Y0090032D01*
X0171285Y0089984D01*
X0169997Y0090080D01*
X0168727Y0090321D01*
X0167493Y0090701D01*
X0166309Y0091218D01*
X0166183Y0091291D01*
X0171683Y0100817D01*
X0171522Y0100539D02*
X0170368Y0100539D01*
X0170436Y0101537D02*
X0170944Y0101537D01*
X0172165Y0100539D02*
X0174165Y0100539D01*
X0173895Y0099540D02*
X0175894Y0099540D01*
X0175624Y0098542D02*
X0177624Y0098542D01*
X0177353Y0097543D02*
X0179353Y0097543D01*
X0179083Y0096545D02*
X0181083Y0096545D01*
X0181885Y0096545D02*
X0217238Y0096545D01*
X0217590Y0097543D02*
X0182314Y0097543D01*
X0182622Y0098542D02*
X0217942Y0098542D01*
X0218294Y0099540D02*
X0182833Y0099540D01*
X0182960Y0100539D02*
X0218612Y0100539D01*
X0218831Y0101537D02*
X0183007Y0101537D01*
X0182969Y0102536D02*
X0219050Y0102536D01*
X0219269Y0103534D02*
X0182823Y0103534D01*
X0182593Y0104533D02*
X0219488Y0104533D01*
X0219707Y0105531D02*
X0182272Y0105531D01*
X0181849Y0106530D02*
X0219926Y0106530D01*
X0220145Y0107528D02*
X0181308Y0107528D01*
X0180625Y0108527D02*
X0220364Y0108527D01*
X0220583Y0109525D02*
X0179758Y0109525D01*
X0178639Y0110524D02*
X0220802Y0110524D01*
X0221021Y0111522D02*
X0176709Y0111522D01*
X0176133Y0110524D02*
X0177287Y0110524D01*
X0176711Y0109525D02*
X0175556Y0109525D01*
X0174980Y0108527D02*
X0176134Y0108527D01*
X0175558Y0107528D02*
X0174403Y0107528D01*
X0173827Y0106530D02*
X0174981Y0106530D01*
X0174405Y0105531D02*
X0173250Y0105531D01*
X0172674Y0104533D02*
X0173828Y0104533D01*
X0173252Y0103534D02*
X0172097Y0103534D01*
X0170946Y0099540D02*
X0169791Y0099540D01*
X0169215Y0098542D02*
X0170369Y0098542D01*
X0169793Y0097543D02*
X0168638Y0097543D01*
X0168062Y0096545D02*
X0169216Y0096545D01*
X0168640Y0095546D02*
X0167485Y0095546D01*
X0166909Y0094548D02*
X0168063Y0094548D01*
X0167487Y0093549D02*
X0166332Y0093549D01*
X0165756Y0092551D02*
X0166910Y0092551D01*
X0166334Y0091552D02*
X0135299Y0091552D01*
X0135299Y0090554D02*
X0167972Y0090554D01*
X0164260Y0092551D02*
X0135299Y0092551D01*
X0135299Y0093549D02*
X0163170Y0093549D01*
X0162322Y0094548D02*
X0135287Y0094548D01*
X0134808Y0095546D02*
X0161641Y0095546D01*
X0175080Y0090554D02*
X0191583Y0090554D01*
X0190971Y0089555D02*
X0135299Y0089555D01*
X0135299Y0088557D02*
X0190394Y0088557D01*
X0192581Y0091552D02*
X0177289Y0091552D01*
X0178731Y0092551D02*
X0193689Y0092551D01*
X0195418Y0093549D02*
X0179810Y0093549D01*
X0180662Y0094548D02*
X0216534Y0094548D01*
X0216886Y0095546D02*
X0180812Y0095546D01*
X0204182Y0093549D02*
X0216182Y0093549D01*
X0215830Y0092551D02*
X0205911Y0092551D01*
X0207019Y0091552D02*
X0215478Y0091552D01*
X0215126Y0090554D02*
X0208017Y0090554D01*
X0208629Y0089555D02*
X0214773Y0089555D01*
X0214331Y0088557D02*
X0209206Y0088557D01*
X0209613Y0087558D02*
X0213833Y0087558D01*
X0213336Y0086560D02*
X0209881Y0086560D01*
X0210148Y0085561D02*
X0212839Y0085561D01*
X0212341Y0084563D02*
X0210174Y0084563D01*
X0210174Y0083564D02*
X0211844Y0083564D01*
X0211347Y0082566D02*
X0210129Y0082566D01*
X0209861Y0081567D02*
X0210850Y0081567D01*
X0210352Y0080568D02*
X0209594Y0080568D01*
X0209855Y0079570D02*
X0209163Y0079570D01*
X0209346Y0078571D02*
X0208587Y0078571D01*
X0208685Y0077573D02*
X0207944Y0077573D01*
X0208023Y0076574D02*
X0206945Y0076574D01*
X0207362Y0075576D02*
X0205784Y0075576D01*
X0206700Y0074577D02*
X0204054Y0074577D01*
X0164325Y0062595D02*
X0106763Y0062595D01*
X0108417Y0067588D02*
X0159883Y0067588D01*
X0158154Y0068586D02*
X0108054Y0068586D01*
X0107521Y0069585D02*
X0156424Y0069585D01*
X0154695Y0070583D02*
X0106988Y0070583D01*
X0098317Y0065591D02*
X0052866Y0065591D01*
X0052008Y0066589D02*
X0096250Y0066589D01*
X0095624Y0067588D02*
X0051149Y0067588D01*
X0050290Y0068586D02*
X0095047Y0068586D01*
X0094471Y0069585D02*
X0049609Y0069585D01*
X0048944Y0070583D02*
X0093894Y0070583D01*
X0093318Y0071582D02*
X0048280Y0071582D01*
X0047615Y0072580D02*
X0092741Y0072580D01*
X0098850Y0064592D02*
X0053725Y0064592D01*
X0130338Y0051612D02*
X0158486Y0051612D01*
X0158753Y0050613D02*
X0132156Y0050613D01*
X0133456Y0049615D02*
X0159021Y0049615D01*
X0159468Y0048616D02*
X0134455Y0048616D01*
X0135178Y0047618D02*
X0160044Y0047618D01*
X0160710Y0046619D02*
X0135754Y0046619D01*
X0136243Y0045621D02*
X0161708Y0045621D01*
X0162909Y0044622D02*
X0136511Y0044622D01*
X0136778Y0043624D02*
X0164639Y0043624D01*
X0148971Y0033638D02*
X0132910Y0033638D01*
X0131209Y0032640D02*
X0145013Y0032640D01*
X0117701Y0108527D02*
X0067961Y0108527D01*
X0069690Y0109525D02*
X0117701Y0109525D01*
X0117701Y0110524D02*
X0071420Y0110524D01*
X0073122Y0111522D02*
X0117701Y0111522D01*
X0117701Y0112521D02*
X0073769Y0112521D01*
X0073926Y0113519D02*
X0117701Y0113519D01*
X0117701Y0114518D02*
X0073666Y0114518D01*
X0073089Y0115516D02*
X0117701Y0115516D01*
X0117701Y0116515D02*
X0072513Y0116515D01*
X0071936Y0117513D02*
X0118112Y0117513D01*
X0119571Y0118512D02*
X0071360Y0118512D01*
X0070783Y0119510D02*
X0120453Y0119510D01*
X0119455Y0120509D02*
X0070207Y0120509D01*
X0079562Y0132491D02*
X0095845Y0132491D01*
X0094116Y0133490D02*
X0080561Y0133490D01*
X0081559Y0134488D02*
X0092386Y0134488D01*
X0090657Y0135487D02*
X0082558Y0135487D01*
X0083556Y0136485D02*
X0088998Y0136485D01*
X0088373Y0137484D02*
X0084555Y0137484D01*
X0085553Y0138482D02*
X0088234Y0138482D01*
X0088514Y0139481D02*
X0086552Y0139481D01*
X0087550Y0140479D02*
X0089090Y0140479D01*
X0088549Y0141478D02*
X0089667Y0141478D01*
X0079399Y0146470D02*
X0072043Y0146470D01*
X0071466Y0145472D02*
X0078401Y0145472D01*
X0077402Y0144473D02*
X0070465Y0144473D01*
X0068235Y0144473D02*
X0031905Y0144473D01*
X0032054Y0143475D02*
X0076404Y0143475D01*
X0075405Y0142476D02*
X0032101Y0142476D01*
X0031949Y0141478D02*
X0074407Y0141478D01*
X0073408Y0140479D02*
X0031811Y0140479D01*
X0031690Y0139481D02*
X0072410Y0139481D01*
X0071411Y0138482D02*
X0031569Y0138482D01*
X0031448Y0137484D02*
X0070413Y0137484D01*
X0066506Y0145472D02*
X0031756Y0145472D01*
X0031607Y0146470D02*
X0064776Y0146470D01*
X0063047Y0147469D02*
X0042950Y0147469D01*
X0042799Y0147428D02*
X0043760Y0147686D01*
X0044549Y0148291D01*
X0048983Y0155972D01*
X0049113Y0156958D01*
X0048855Y0157918D01*
X0048250Y0158707D01*
X0038865Y0164126D01*
X0037879Y0164256D01*
X0036918Y0163998D01*
X0036129Y0163393D01*
X0031695Y0155712D01*
X0031565Y0154726D01*
X0031822Y0153766D01*
X0032428Y0152977D01*
X0041813Y0147558D01*
X0042799Y0147428D01*
X0042492Y0147469D02*
X0031155Y0147469D01*
X0030676Y0148467D02*
X0040238Y0148467D01*
X0038509Y0149466D02*
X0030196Y0149466D01*
X0029495Y0150464D02*
X0036779Y0150464D01*
X0035050Y0151463D02*
X0028569Y0151463D01*
X0027644Y0152461D02*
X0033320Y0152461D01*
X0032057Y0153460D02*
X0026143Y0153460D01*
X0024413Y0154458D02*
X0031637Y0154458D01*
X0031661Y0155457D02*
X0022684Y0155457D01*
X0020954Y0156455D02*
X0032124Y0156455D01*
X0032700Y0157454D02*
X0019225Y0157454D01*
X0017495Y0158452D02*
X0022944Y0158452D01*
X0024782Y0158452D02*
X0033277Y0158452D01*
X0033853Y0159451D02*
X0025988Y0159451D01*
X0026565Y0160449D02*
X0034430Y0160449D01*
X0035006Y0161448D02*
X0027141Y0161448D01*
X0027718Y0162446D02*
X0035583Y0162446D01*
X0036197Y0163445D02*
X0028294Y0163445D01*
X0028871Y0164443D02*
X0035228Y0164443D01*
X0033465Y0165442D02*
X0029447Y0165442D01*
X0030024Y0166440D02*
X0032616Y0166440D01*
X0032202Y0167439D02*
X0030315Y0167439D01*
X0030185Y0168437D02*
X0032071Y0168437D01*
X0032071Y0169436D02*
X0029573Y0169436D01*
X0027938Y0170434D02*
X0032477Y0170434D01*
X0033129Y0171433D02*
X0026209Y0171433D01*
X0024479Y0172432D02*
X0034418Y0172432D01*
X0038268Y0172432D02*
X0041347Y0172432D01*
X0041924Y0173430D02*
X0022750Y0173430D01*
X0021020Y0174429D02*
X0042500Y0174429D01*
X0043077Y0175427D02*
X0017756Y0175427D01*
X0017649Y0174429D02*
X0017291Y0174429D01*
X0016921Y0173430D02*
X0016827Y0173430D01*
X0018220Y0176426D02*
X0043653Y0176426D01*
X0044230Y0177424D02*
X0018685Y0177424D01*
X0019149Y0178423D02*
X0044806Y0178423D01*
X0043948Y0179421D02*
X0019614Y0179421D01*
X0020078Y0180420D02*
X0042151Y0180420D01*
X0041287Y0181418D02*
X0020543Y0181418D01*
X0021103Y0182417D02*
X0040874Y0182417D01*
X0040732Y0183415D02*
X0021680Y0183415D01*
X0022256Y0184414D02*
X0040732Y0184414D01*
X0041128Y0185412D02*
X0022833Y0185412D01*
X0023409Y0186411D02*
X0041766Y0186411D01*
X0043020Y0187409D02*
X0023986Y0187409D01*
X0024562Y0188408D02*
X0050571Y0188408D01*
X0051148Y0189406D02*
X0042994Y0189406D01*
X0043860Y0190405D02*
X0051724Y0190405D01*
X0052301Y0191403D02*
X0044436Y0191403D01*
X0045013Y0192402D02*
X0052877Y0192402D01*
X0053454Y0193400D02*
X0045589Y0193400D01*
X0046166Y0194399D02*
X0054262Y0194399D01*
X0054635Y0194684D02*
X0053846Y0194079D01*
X0049411Y0186398D01*
X0049281Y0185412D01*
X0048880Y0185412D01*
X0049281Y0185412D02*
X0049539Y0184452D01*
X0050144Y0183663D01*
X0059529Y0178244D01*
X0060516Y0178114D01*
X0061476Y0178372D01*
X0062265Y0178977D01*
X0066699Y0186658D01*
X0066829Y0187644D01*
X0066572Y0188604D01*
X0065966Y0189393D01*
X0056581Y0194812D01*
X0055595Y0194942D01*
X0054635Y0194684D01*
X0057297Y0194399D02*
X0075078Y0194399D01*
X0074502Y0195397D02*
X0046742Y0195397D01*
X0047318Y0196396D02*
X0074133Y0196396D01*
X0074313Y0195724D02*
X0075679Y0193359D01*
X0077611Y0191427D01*
X0079976Y0190061D01*
X0082615Y0189354D01*
X0085346Y0189354D01*
X0087985Y0190061D01*
X0090350Y0191427D01*
X0092282Y0193359D01*
X0093647Y0195724D01*
X0094354Y0198363D01*
X0094354Y0201094D01*
X0093647Y0203733D01*
X0092282Y0206098D01*
X0090350Y0208030D01*
X0087985Y0209395D01*
X0085346Y0210102D01*
X0082615Y0210102D01*
X0079976Y0209395D01*
X0077611Y0208030D01*
X0075679Y0206098D01*
X0074313Y0203733D01*
X0073606Y0201094D01*
X0073606Y0198363D01*
X0074313Y0195724D01*
X0073866Y0197394D02*
X0047895Y0197394D01*
X0048067Y0198393D02*
X0057831Y0198393D01*
X0058115Y0198393D02*
X0073606Y0198393D01*
X0073606Y0199391D02*
X0063526Y0199391D01*
X0065623Y0200390D02*
X0073606Y0200390D01*
X0073685Y0201388D02*
X0066883Y0201388D01*
X0068212Y0202387D02*
X0073953Y0202387D01*
X0074220Y0203385D02*
X0069542Y0203385D01*
X0070871Y0204384D02*
X0074689Y0204384D01*
X0075266Y0205382D02*
X0072379Y0205382D01*
X0074001Y0206381D02*
X0075962Y0206381D01*
X0075622Y0207379D02*
X0076960Y0207379D01*
X0077244Y0208378D02*
X0078214Y0208378D01*
X0078865Y0209376D02*
X0079943Y0209376D01*
X0080487Y0210375D02*
X0116126Y0210375D01*
X0116126Y0209780D02*
X0116126Y0212511D01*
X0116833Y0215150D01*
X0118199Y0217515D01*
X0120130Y0219447D01*
X0122496Y0220813D01*
X0125134Y0221520D01*
X0127866Y0221520D01*
X0130504Y0220813D01*
X0132870Y0219447D01*
X0134801Y0217515D01*
X0136167Y0215150D01*
X0136874Y0212511D01*
X0136874Y0209780D01*
X0136167Y0207141D01*
X0134801Y0204776D01*
X0132870Y0202844D01*
X0130504Y0201479D01*
X0127866Y0200772D01*
X0125134Y0200772D01*
X0122496Y0201479D01*
X0120130Y0202844D01*
X0118199Y0204776D01*
X0116833Y0207141D01*
X0116126Y0209780D01*
X0116234Y0209376D02*
X0088017Y0209376D01*
X0089747Y0208378D02*
X0116502Y0208378D01*
X0116769Y0207379D02*
X0091000Y0207379D01*
X0091999Y0206381D02*
X0117272Y0206381D01*
X0117849Y0205382D02*
X0092695Y0205382D01*
X0093271Y0204384D02*
X0118591Y0204384D01*
X0119589Y0203385D02*
X0093740Y0203385D01*
X0094008Y0202387D02*
X0120923Y0202387D01*
X0122833Y0201388D02*
X0094275Y0201388D01*
X0094354Y0200390D02*
X0158252Y0200390D01*
X0158252Y0201094D02*
X0158252Y0198363D01*
X0158959Y0195724D01*
X0160325Y0193359D01*
X0162256Y0191427D01*
X0164622Y0190061D01*
X0167260Y0189354D01*
X0169992Y0189354D01*
X0172630Y0190061D01*
X0174996Y0191427D01*
X0176927Y0193359D01*
X0178293Y0195724D01*
X0179000Y0198363D01*
X0179000Y0201094D01*
X0178293Y0203733D01*
X0176927Y0206098D01*
X0174996Y0208030D01*
X0172630Y0209395D01*
X0169992Y0210102D01*
X0167260Y0210102D01*
X0164622Y0209395D01*
X0162256Y0208030D01*
X0160325Y0206098D01*
X0158959Y0203733D01*
X0158252Y0201094D01*
X0158331Y0201388D02*
X0130167Y0201388D01*
X0132077Y0202387D02*
X0158598Y0202387D01*
X0158866Y0203385D02*
X0133411Y0203385D01*
X0134409Y0204384D02*
X0159335Y0204384D01*
X0159911Y0205382D02*
X0135151Y0205382D01*
X0135728Y0206381D02*
X0160607Y0206381D01*
X0161606Y0207379D02*
X0136231Y0207379D01*
X0136498Y0208378D02*
X0162859Y0208378D01*
X0164589Y0209376D02*
X0136766Y0209376D01*
X0136874Y0210375D02*
X0172539Y0210375D01*
X0172663Y0209376D02*
X0174147Y0209376D01*
X0174392Y0208378D02*
X0175754Y0208378D01*
X0175646Y0207379D02*
X0177362Y0207379D01*
X0176644Y0206381D02*
X0178969Y0206381D01*
X0180577Y0205382D02*
X0177340Y0205382D01*
X0177917Y0204384D02*
X0182121Y0204384D01*
X0183358Y0203385D02*
X0178386Y0203385D01*
X0178654Y0202387D02*
X0184596Y0202387D01*
X0185833Y0201388D02*
X0178921Y0201388D01*
X0179000Y0200390D02*
X0187071Y0200390D01*
X0188308Y0199391D02*
X0179000Y0199391D01*
X0179000Y0198393D02*
X0189546Y0198393D01*
X0190783Y0197394D02*
X0178741Y0197394D01*
X0178473Y0196396D02*
X0191812Y0196396D01*
X0192778Y0195397D02*
X0178104Y0195397D01*
X0177528Y0194399D02*
X0193744Y0194399D01*
X0194710Y0193400D02*
X0176951Y0193400D01*
X0175970Y0192402D02*
X0195676Y0192402D01*
X0196642Y0191403D02*
X0174954Y0191403D01*
X0173225Y0190405D02*
X0197608Y0190405D01*
X0198574Y0189406D02*
X0170185Y0189406D01*
X0167067Y0189406D02*
X0085540Y0189406D01*
X0082421Y0189406D02*
X0065944Y0189406D01*
X0066625Y0188408D02*
X0199477Y0188408D01*
X0200230Y0187409D02*
X0159998Y0187409D01*
X0161317Y0186411D02*
X0200982Y0186411D01*
X0201734Y0185412D02*
X0161677Y0185412D01*
X0161677Y0184414D02*
X0202487Y0184414D01*
X0203239Y0183415D02*
X0161677Y0183415D01*
X0162654Y0182417D02*
X0203991Y0182417D01*
X0204744Y0181418D02*
X0163653Y0181418D01*
X0164651Y0180420D02*
X0205496Y0180420D01*
X0206248Y0179421D02*
X0165650Y0179421D01*
X0166116Y0178423D02*
X0196208Y0178423D01*
X0194219Y0177424D02*
X0166500Y0177424D01*
X0166500Y0176426D02*
X0192857Y0176426D01*
X0191858Y0175427D02*
X0166500Y0175427D01*
X0166500Y0174429D02*
X0191100Y0174429D01*
X0203249Y0178423D02*
X0206846Y0178423D01*
X0207421Y0177424D02*
X0205238Y0177424D01*
X0206600Y0176426D02*
X0207996Y0176426D01*
X0207598Y0175427D02*
X0208572Y0175427D01*
X0208357Y0174429D02*
X0209147Y0174429D01*
X0208934Y0173430D02*
X0209722Y0173430D01*
X0209449Y0172432D02*
X0210297Y0172432D01*
X0210872Y0171433D02*
X0209716Y0171433D01*
X0209984Y0170434D02*
X0211448Y0170434D01*
X0212023Y0169436D02*
X0210102Y0169436D01*
X0210102Y0168437D02*
X0212497Y0168437D01*
X0212919Y0167439D02*
X0210102Y0167439D01*
X0209883Y0166440D02*
X0213341Y0166440D01*
X0213762Y0165442D02*
X0209615Y0165442D01*
X0209292Y0164443D02*
X0214184Y0164443D01*
X0214605Y0163445D02*
X0208716Y0163445D01*
X0208139Y0162446D02*
X0215027Y0162446D01*
X0215449Y0161448D02*
X0207221Y0161448D01*
X0206223Y0160449D02*
X0215870Y0160449D01*
X0216292Y0159451D02*
X0204585Y0159451D01*
X0201842Y0158452D02*
X0216713Y0158452D01*
X0183472Y0140479D02*
X0163910Y0140479D01*
X0164486Y0139481D02*
X0182442Y0139481D01*
X0181877Y0138482D02*
X0164766Y0138482D01*
X0164627Y0137484D02*
X0181312Y0137484D01*
X0179791Y0136485D02*
X0164002Y0136485D01*
X0162343Y0135487D02*
X0178370Y0135487D01*
X0177794Y0134488D02*
X0160614Y0134488D01*
X0158884Y0133490D02*
X0177217Y0133490D01*
X0176641Y0132491D02*
X0157155Y0132491D01*
X0155029Y0132491D02*
X0143064Y0132491D01*
X0143640Y0131493D02*
X0176065Y0131493D01*
X0175488Y0130494D02*
X0144217Y0130494D01*
X0144793Y0129496D02*
X0174912Y0129496D01*
X0174335Y0128497D02*
X0145370Y0128497D01*
X0145667Y0127499D02*
X0173759Y0127499D01*
X0173182Y0126500D02*
X0145544Y0126500D01*
X0144939Y0125501D02*
X0172606Y0125501D01*
X0172029Y0124503D02*
X0143319Y0124503D01*
X0141589Y0123504D02*
X0171512Y0123504D01*
X0171440Y0122506D02*
X0139860Y0122506D01*
X0138131Y0121507D02*
X0171799Y0121507D01*
X0172946Y0120509D02*
X0133545Y0120509D01*
X0134544Y0121507D02*
X0135865Y0121507D01*
X0132547Y0119510D02*
X0174675Y0119510D01*
X0176405Y0118512D02*
X0133429Y0118512D01*
X0134888Y0117513D02*
X0178134Y0117513D01*
X0179864Y0116515D02*
X0135299Y0116515D01*
X0118456Y0121507D02*
X0117135Y0121507D01*
X0123612Y0130494D02*
X0125491Y0130494D01*
X0127509Y0130494D02*
X0129388Y0130494D01*
X0129684Y0131493D02*
X0123316Y0131493D01*
X0123893Y0132491D02*
X0129107Y0132491D01*
X0128531Y0133490D02*
X0124469Y0133490D01*
X0124762Y0134488D02*
X0128238Y0134488D01*
X0128365Y0135487D02*
X0124635Y0135487D01*
X0124025Y0136485D02*
X0128975Y0136485D01*
X0130605Y0137484D02*
X0122395Y0137484D01*
X0120665Y0138482D02*
X0132335Y0138482D01*
X0134064Y0139481D02*
X0118936Y0139481D01*
X0117206Y0140479D02*
X0135794Y0140479D01*
X0138028Y0140479D02*
X0149953Y0140479D01*
X0150530Y0139481D02*
X0139028Y0139481D01*
X0139605Y0138482D02*
X0151106Y0138482D01*
X0151683Y0137484D02*
X0140181Y0137484D01*
X0140758Y0136485D02*
X0152259Y0136485D01*
X0152836Y0135487D02*
X0141334Y0135487D01*
X0141911Y0134488D02*
X0153412Y0134488D01*
X0153989Y0133490D02*
X0142487Y0133490D01*
X0182382Y0116515D02*
X0208328Y0116515D01*
X0205963Y0117513D02*
X0183314Y0117513D01*
X0183890Y0118512D02*
X0204463Y0118512D01*
X0203464Y0119510D02*
X0184467Y0119510D01*
X0185043Y0120509D02*
X0202626Y0120509D01*
X0202049Y0121507D02*
X0185620Y0121507D01*
X0186196Y0122506D02*
X0201476Y0122506D01*
X0201208Y0123504D02*
X0186773Y0123504D01*
X0187349Y0124503D02*
X0200941Y0124503D01*
X0200772Y0125501D02*
X0187926Y0125501D01*
X0188502Y0126500D02*
X0200772Y0126500D01*
X0200772Y0127499D02*
X0189079Y0127499D01*
X0189655Y0128497D02*
X0200941Y0128497D01*
X0201208Y0129496D02*
X0190063Y0129496D01*
X0190039Y0130494D02*
X0201476Y0130494D01*
X0202049Y0131493D02*
X0189557Y0131493D01*
X0189976Y0132491D02*
X0202626Y0132491D01*
X0203464Y0133490D02*
X0190541Y0133490D01*
X0191107Y0134488D02*
X0204463Y0134488D01*
X0205963Y0135487D02*
X0191413Y0135487D01*
X0191536Y0136485D02*
X0208329Y0136485D01*
X0221148Y0112521D02*
X0174787Y0112521D01*
X0095826Y0151463D02*
X0093549Y0151463D01*
X0080398Y0147469D02*
X0076001Y0147469D01*
X0063622Y0153460D02*
X0047533Y0153460D01*
X0048109Y0154458D02*
X0054638Y0154458D01*
X0053180Y0155457D02*
X0048686Y0155457D01*
X0049047Y0156455D02*
X0051843Y0156455D01*
X0050506Y0157454D02*
X0048980Y0157454D01*
X0048446Y0158452D02*
X0049890Y0158452D01*
X0049413Y0159451D02*
X0046962Y0159451D01*
X0048115Y0160449D02*
X0045233Y0160449D01*
X0046420Y0161448D02*
X0043503Y0161448D01*
X0044725Y0162446D02*
X0041774Y0162446D01*
X0043036Y0163445D02*
X0040044Y0163445D01*
X0041307Y0164443D02*
X0037457Y0164443D01*
X0039220Y0165442D02*
X0039597Y0165442D01*
X0039556Y0171433D02*
X0040771Y0171433D01*
X0054525Y0179421D02*
X0057491Y0179421D01*
X0056234Y0178423D02*
X0059220Y0178423D01*
X0057958Y0177424D02*
X0091614Y0177424D01*
X0092597Y0178423D02*
X0061542Y0178423D01*
X0062522Y0179421D02*
X0115371Y0179421D01*
X0115144Y0178423D02*
X0108041Y0178423D01*
X0115688Y0180420D02*
X0063098Y0180420D01*
X0063674Y0181418D02*
X0116104Y0181418D01*
X0116636Y0182417D02*
X0064251Y0182417D01*
X0064827Y0183415D02*
X0117306Y0183415D01*
X0118150Y0184414D02*
X0065404Y0184414D01*
X0065980Y0185412D02*
X0119231Y0185412D01*
X0120658Y0186411D02*
X0066557Y0186411D01*
X0066798Y0187409D02*
X0122858Y0187409D01*
X0126000Y0187409D02*
X0127000Y0187409D01*
X0127000Y0186411D02*
X0126000Y0186411D01*
X0126000Y0185412D02*
X0127000Y0185412D01*
X0127000Y0184414D02*
X0126000Y0184414D01*
X0126000Y0183415D02*
X0127000Y0183415D01*
X0127000Y0182417D02*
X0126000Y0182417D01*
X0126000Y0181418D02*
X0127000Y0181418D01*
X0127000Y0180420D02*
X0126000Y0180420D01*
X0126000Y0179421D02*
X0127000Y0179421D01*
X0127000Y0178423D02*
X0126000Y0178423D01*
X0126000Y0177424D02*
X0127000Y0177424D01*
X0127000Y0176426D02*
X0143685Y0176426D01*
X0143685Y0177424D02*
X0137969Y0177424D01*
X0137856Y0178423D02*
X0143685Y0178423D01*
X0143685Y0179421D02*
X0137629Y0179421D01*
X0137312Y0180420D02*
X0143685Y0180420D01*
X0143685Y0181418D02*
X0136896Y0181418D01*
X0136364Y0182417D02*
X0143685Y0182417D01*
X0143685Y0183415D02*
X0135694Y0183415D01*
X0134850Y0184414D02*
X0143685Y0184414D01*
X0143685Y0185412D02*
X0133769Y0185412D01*
X0132342Y0186411D02*
X0144045Y0186411D01*
X0145364Y0187409D02*
X0130142Y0187409D01*
X0137952Y0175427D02*
X0144038Y0175427D01*
X0145318Y0174429D02*
X0137823Y0174429D01*
X0156500Y0164443D02*
X0082420Y0164443D01*
X0081843Y0163445D02*
X0156500Y0163445D01*
X0156500Y0162446D02*
X0081267Y0162446D01*
X0080690Y0161448D02*
X0156500Y0161448D01*
X0156500Y0160449D02*
X0080114Y0160449D01*
X0079343Y0159451D02*
X0156500Y0159451D01*
X0164027Y0190405D02*
X0088579Y0190405D01*
X0090309Y0191403D02*
X0162297Y0191403D01*
X0161282Y0192402D02*
X0091325Y0192402D01*
X0092306Y0193400D02*
X0160301Y0193400D01*
X0159724Y0194399D02*
X0092882Y0194399D01*
X0093459Y0195397D02*
X0159148Y0195397D01*
X0158779Y0196396D02*
X0093827Y0196396D01*
X0094095Y0197394D02*
X0158511Y0197394D01*
X0158252Y0198393D02*
X0094354Y0198393D01*
X0094354Y0199391D02*
X0158252Y0199391D01*
X0168434Y0212372D02*
X0136874Y0212372D01*
X0136874Y0211373D02*
X0170596Y0211373D01*
X0166273Y0213370D02*
X0136644Y0213370D01*
X0136376Y0214369D02*
X0164111Y0214369D01*
X0161950Y0215368D02*
X0136041Y0215368D01*
X0135465Y0216366D02*
X0159154Y0216366D01*
X0156033Y0217365D02*
X0134888Y0217365D01*
X0133954Y0218363D02*
X0152913Y0218363D01*
X0149645Y0219362D02*
X0132955Y0219362D01*
X0131288Y0220360D02*
X0144356Y0220360D01*
X0139067Y0221359D02*
X0128467Y0221359D01*
X0124533Y0221359D02*
X0114031Y0221359D01*
X0108626Y0220360D02*
X0121712Y0220360D01*
X0120045Y0219362D02*
X0103274Y0219362D01*
X0100111Y0218363D02*
X0119046Y0218363D01*
X0118112Y0217365D02*
X0096948Y0217365D01*
X0093784Y0216366D02*
X0117535Y0216366D01*
X0116959Y0215368D02*
X0091085Y0215368D01*
X0088902Y0214369D02*
X0116624Y0214369D01*
X0116356Y0213370D02*
X0086718Y0213370D01*
X0084534Y0212372D02*
X0116126Y0212372D01*
X0116126Y0211373D02*
X0082350Y0211373D01*
X0053910Y0199391D02*
X0047830Y0199391D01*
X0046920Y0200390D02*
X0052180Y0200390D01*
X0050451Y0201388D02*
X0045190Y0201388D01*
X0043461Y0202387D02*
X0048722Y0202387D01*
X0046992Y0203385D02*
X0041732Y0203385D01*
X0040002Y0204384D02*
X0045263Y0204384D01*
X0043363Y0205382D02*
X0038273Y0205382D01*
X0031333Y0198393D02*
X0031286Y0198393D01*
X0030756Y0197394D02*
X0030586Y0197394D01*
X0030550Y0196396D02*
X0029885Y0196396D01*
X0029185Y0195397D02*
X0030754Y0195397D01*
X0031549Y0194399D02*
X0028484Y0194399D01*
X0027783Y0193400D02*
X0033278Y0193400D01*
X0035008Y0192402D02*
X0027083Y0192402D01*
X0026382Y0191403D02*
X0036737Y0191403D01*
X0038467Y0190405D02*
X0025715Y0190405D01*
X0025139Y0189406D02*
X0040196Y0189406D01*
X0046988Y0187409D02*
X0049995Y0187409D01*
X0049418Y0186411D02*
X0048242Y0186411D01*
X0049276Y0184414D02*
X0049568Y0184414D01*
X0049276Y0183415D02*
X0050573Y0183415D01*
X0049134Y0182417D02*
X0052302Y0182417D01*
X0051040Y0181418D02*
X0054032Y0181418D01*
X0052769Y0180420D02*
X0055761Y0180420D01*
X0062485Y0191403D02*
X0077652Y0191403D01*
X0076636Y0192402D02*
X0060756Y0192402D01*
X0059026Y0193400D02*
X0075655Y0193400D01*
X0079381Y0190405D02*
X0064215Y0190405D01*
X0016026Y0162446D02*
X0014318Y0162446D01*
X0014296Y0163445D02*
X0013957Y0163445D01*
X0014682Y0161448D02*
X0017755Y0161448D01*
X0019485Y0160449D02*
X0015359Y0160449D01*
X0016198Y0159451D02*
X0021214Y0159451D01*
X0046380Y0151463D02*
X0062469Y0151463D01*
X0063046Y0152461D02*
X0046956Y0152461D01*
X0044650Y0148467D02*
X0062042Y0148467D01*
X0064199Y0154458D02*
X0058616Y0154458D01*
X0060165Y0155457D02*
X0064775Y0155457D01*
X0069211Y0155457D02*
X0074024Y0155457D01*
M02*
